<?xml version="1.0" encoding="utf-8"?>
<svg xmlns="http://www.w3.org/2000/svg" viewBox="310.2072 216.9907 152.5262 152.5262" width="152.526px" height="152.526px"><g id="object-11" transform="matrix(1, 0, 0, -1, 85.51352699614463, 646.0000006016345)"><g><g transform="matrix(1, 0, 0, 1, 369.388092, 376.977387)" id="object-0"><path d="M 0 0 C -13.924 13.198 -22.66 7.193 -30.279 -0.249 C -40.468 -10.067 -43.179 -12.039 -46.333 -11.733 C -53.365 -11.051 -59.581 -1.715 -70.446 -12.58 C -71.56 -13.694 -73.62 -15.898 -74.644 -17.085 C -74.7 -17.15 -74.608 -17.237 -74.546 -17.178 C -72.782 -15.499 -68.076 -11.296 -64.434 -10.533 C -58.563 -9.303 -51.206 -17.089 -43.239 -20.285 C -32.638 -24.536 -24.43 -15.612 -16.656 -7.641 C -9.766 -0.578 -3.246 -0.425 -0.379 -0.803 C 0.067 -0.861 0.327 -0.309 0 0" style="fill: rgb(255, 50, 36); fill-opacity: 1;"/></g><g transform="matrix(1, 0, 0, 1, 315.689087, 369.962586)" id="object-1"><path d="M 0 0 C 0.021 -0.012 0.041 -0.024 0.063 -0.035 C 0.075 -0.042 0.086 -0.043 0.099 -0.047 C 1.712 -0.827 3.542 -1.47 5.6 -1.851 C 5.742 -1.877 5.794 -1.67 5.656 -1.625 C 3.204 -0.823 -1.039 0.927 -1.893 4.455 C -1.908 4.521 -1.922 4.587 -1.935 4.653 C -1.97 4.828 -1.997 5.006 -2.015 5.19 C -2.022 5.255 -2.03 5.321 -2.035 5.386 C -2.072 5.972 -2.021 6.599 -1.861 7.274 L -1.872 7.313 C -1.224 9.996 1.186 12.748 5.826 17.388 C 8.232 19.794 10.788 22.216 12.89 24.81 C 18.84 31.774 21.988 39.983 10.449 52.16 C 10.14 52.487 9.584 52.23 9.643 51.784 C 9.673 51.553 9.699 51.297 9.719 51.021 C 9.919 48.285 9.456 43.403 5.108 38.028 C 4.436 37.198 3.673 36.356 2.804 35.509 C 1.37 34.11 -0.095 32.697 -1.508 31.258 C -7.465 25.197 -13.055 18.521 -10.48 10.864 C -10.183 9.983 -9.738 9.055 -9.146 8.107 L -9.149 8.104 C -9.149 8.104 -6.213 3.038 0 0" style="fill: rgb(255, 131, 108); fill-opacity: 1;"/></g><g transform="matrix(1, 0, 0, 1, 311.490906, 418.787293)" id="object-2"><path d="M 0 0 C 0 -5.646 -4.577 -10.222 -10.222 -10.222 C -15.868 -10.222 -20.445 -5.646 -20.445 0 C -20.445 5.646 -15.868 10.222 -10.222 10.222 C -4.577 10.222 0 5.646 0 0" style="fill: rgb(42, 133, 60); fill-opacity: 1;"/></g><g transform="matrix(1, 0, 0, 1, 232.525604, 328.514893)" id="object-3"><path d="M 0 0 C 13.924 -13.198 22.66 -7.193 30.279 0.249 C 40.468 10.067 43.179 12.039 46.333 11.733 C 53.365 11.051 59.581 1.715 70.446 12.58 C 71.56 13.694 73.62 15.898 74.644 17.085 C 74.7 17.15 74.608 17.237 74.546 17.178 C 72.782 15.499 68.076 11.296 64.434 10.533 C 58.563 9.303 51.206 17.089 43.239 20.285 C 32.638 24.536 24.43 15.612 16.656 7.641 C 9.766 0.578 3.246 0.425 0.379 0.803 C -0.067 0.861 -0.327 0.309 0 0" style="fill: rgb(42, 133, 60); fill-opacity: 1;"/></g><g transform="matrix(1, 0, 0, 1, 286.224488, 335.529785)" id="object-4"><path d="M 0 0 C -0.021 0.012 -0.041 0.024 -0.063 0.035 C -0.075 0.042 -0.086 0.043 -0.099 0.047 C -1.712 0.827 -3.542 1.47 -5.6 1.851 C -5.742 1.877 -5.794 1.67 -5.656 1.625 C -3.204 0.823 1.039 -0.927 1.893 -4.455 C 1.908 -4.521 1.922 -4.587 1.935 -4.653 C 1.97 -4.828 1.997 -5.007 2.015 -5.19 C 2.022 -5.255 2.03 -5.321 2.035 -5.386 C 2.072 -5.972 2.021 -6.599 1.861 -7.274 L 1.872 -7.313 C 1.224 -9.997 -1.186 -12.748 -5.826 -17.388 C -8.232 -19.794 -10.788 -22.216 -12.89 -24.81 C -18.84 -31.774 -21.988 -39.983 -10.449 -52.16 C -10.14 -52.487 -9.584 -52.23 -9.643 -51.784 C -9.673 -51.553 -9.699 -51.297 -9.719 -51.021 C -9.919 -48.286 -9.456 -43.403 -5.108 -38.028 C -4.436 -37.198 -3.673 -36.356 -2.804 -35.509 C -1.37 -34.11 0.095 -32.697 1.508 -31.258 C 7.465 -25.197 13.055 -18.521 10.48 -10.864 C 10.183 -9.983 9.738 -9.055 9.146 -8.107 L 9.149 -8.104 C 9.149 -8.104 6.213 -3.038 0 0" style="fill: rgb(118, 172, 124); fill-opacity: 1;"/></g><g transform="matrix(1, 0, 0, 1, 290.422699, 286.705109)"><path d="M 0 0 C 0 5.646 4.577 10.222 10.222 10.222 C 15.868 10.222 20.445 5.646 20.445 0 C 20.445 -5.646 15.868 -10.222 10.222 -10.222 C 4.577 -10.222 0 -5.646 0 0" style="fill: rgb(255, 50, 36); fill-opacity: 1;"/></g><g transform="matrix(1, 0, 0, 1, 325.188111, 284.314911)" id="object-5"><path d="M 0 0 C 13.198 13.924 7.193 22.66 -0.249 30.279 C -10.067 40.468 -12.039 43.179 -11.733 46.333 C -11.051 53.365 -1.715 59.581 -12.58 70.446 C -13.694 71.56 -15.898 73.62 -17.085 74.644 C -17.15 74.7 -17.237 74.608 -17.178 74.546 C -15.499 72.782 -11.296 68.076 -10.533 64.434 C -9.303 58.563 -17.089 51.206 -20.285 43.239 C -24.536 32.638 -15.612 24.43 -7.641 16.656 C -0.578 9.766 -0.425 3.246 -0.803 0.379 C -0.861 -0.067 -0.309 -0.327 0 0" style="fill: rgb(39, 155, 214); fill-opacity: 1;"/></g><g transform="matrix(1, 0, 0, 1, 318.173188, 338.013886)" id="object-6"><path d="M 0 0 C -0.012 -0.021 -0.024 -0.041 -0.035 -0.063 C -0.042 -0.075 -0.043 -0.086 -0.047 -0.099 C -0.827 -1.712 -1.47 -3.542 -1.851 -5.6 C -1.877 -5.742 -1.67 -5.794 -1.625 -5.656 C -0.823 -3.204 0.927 1.039 4.455 1.893 C 4.521 1.908 4.587 1.922 4.653 1.935 C 4.828 1.97 5.006 1.997 5.19 2.015 C 5.255 2.022 5.321 2.03 5.386 2.035 C 5.972 2.072 6.599 2.021 7.274 1.861 L 7.313 1.872 C 9.997 1.224 12.748 -1.186 17.388 -5.826 C 19.794 -8.232 22.216 -10.788 24.81 -12.89 C 31.774 -18.84 39.983 -21.988 52.16 -10.449 C 52.487 -10.14 52.23 -9.584 51.784 -9.643 C 51.553 -9.673 51.297 -9.699 51.021 -9.72 C 48.285 -9.919 43.403 -9.456 38.028 -5.108 C 37.198 -4.436 36.356 -3.673 35.509 -2.804 C 34.11 -1.37 32.697 0.095 31.258 1.508 C 25.197 7.465 18.521 13.055 10.864 10.48 C 9.983 10.183 9.055 9.738 8.107 9.146 L 8.104 9.149 C 8.104 9.149 3.038 6.213 0 0" style="fill: rgb(123, 191, 230); fill-opacity: 1;"/></g><g transform="matrix(1, 0, 0, 1, 366.997895, 342.212097)" id="object-7"><path d="M 0 0 C -5.646 0 -10.222 4.577 -10.222 10.222 C -10.222 15.868 -5.646 20.445 0 20.445 C 5.646 20.445 10.222 15.868 10.222 10.222 C 10.222 4.577 5.646 0 0 0" style="fill: rgb(255, 168, 70); fill-opacity: 1;"/></g><g transform="matrix(1, 0, 0, 1, 276.725586, 421.177399)" id="object-8"><path d="M 0 0 C -13.198 -13.924 -7.193 -22.66 0.249 -30.279 C 10.067 -40.468 12.039 -43.179 11.733 -46.333 C 11.051 -53.365 1.715 -59.581 12.58 -70.446 C 13.694 -71.56 15.898 -73.62 17.085 -74.644 C 17.15 -74.7 17.237 -74.608 17.178 -74.546 C 15.499 -72.782 11.296 -68.076 10.533 -64.434 C 9.303 -58.563 17.089 -51.206 20.285 -43.239 C 24.536 -32.638 15.612 -24.43 7.641 -16.656 C 0.578 -9.766 0.425 -3.246 0.803 -0.379 C 0.861 0.067 0.309 0.327 0 0" style="fill: rgb(255, 168, 70); fill-opacity: 1;"/></g><g transform="matrix(1, 0, 0, 1, 283.740387, 367.478485)" id="object-9"><path d="M 0 0 C 0.012 0.021 0.024 0.041 0.035 0.063 C 0.042 0.075 0.043 0.086 0.047 0.099 C 0.827 1.712 1.47 3.542 1.851 5.6 C 1.877 5.742 1.67 5.794 1.625 5.656 C 0.823 3.204 -0.927 -1.039 -4.455 -1.893 C -4.521 -1.908 -4.587 -1.922 -4.653 -1.935 C -4.828 -1.97 -5.006 -1.997 -5.19 -2.015 C -5.255 -2.022 -5.321 -2.03 -5.386 -2.035 C -5.972 -2.072 -6.599 -2.021 -7.274 -1.861 L -7.313 -1.872 C -9.997 -1.224 -12.748 1.186 -17.388 5.826 C -19.794 8.232 -22.216 10.788 -24.81 12.89 C -31.774 18.84 -39.983 21.988 -52.16 10.449 C -52.487 10.14 -52.23 9.584 -51.784 9.643 C -51.553 9.673 -51.297 9.699 -51.021 9.719 C -48.286 9.919 -43.403 9.456 -38.028 5.108 C -37.198 4.436 -36.356 3.673 -35.509 2.804 C -34.11 1.37 -32.697 -0.095 -31.258 -1.508 C -25.197 -7.465 -18.521 -13.055 -10.864 -10.48 C -9.983 -10.183 -9.055 -9.738 -8.107 -9.146 L -8.104 -9.149 C -8.104 -9.149 -3.038 -6.213 0 0" style="fill: rgb(251, 194, 148); fill-opacity: 1;"/></g><g transform="matrix(1, 0, 0, 1, 234.915695, 363.280304)" id="object-10"><path d="M 0 0 C 5.646 0 10.222 -4.577 10.222 -10.222 C 10.222 -15.868 5.646 -20.445 0 -20.445 C -5.646 -20.445 -10.222 -15.868 -10.222 -10.222 C -10.222 -4.577 -5.646 0 0 0" style="fill: rgb(39, 155, 214); fill-opacity: 1;"/></g></g></g></svg>