<?xml version="1.0" encoding="utf-8"?>
<svg xmlns="http://www.w3.org/2000/svg" viewBox="309.0755 395.6702 154.7892 94.2486" width="154.789px" height="94.2486px" preserveAspectRatio="none"><g id="object-12" transform="matrix(1, 0, 0, -1, 85.51352699614463, 646.0000006016345)"><g transform="matrix(1, 0, 0, 1, 250.697998, 198.417801)"><path d="M 0 0 C -8.09 0 -14.252 2.249 -18.489 6.749 C -22.725 11.248 -24.843 17.638 -24.843 25.92 C -24.843 30.036 -24.197 33.711 -22.904 36.942 C -21.612 40.173 -19.842 42.901 -17.591 45.127 C -15.342 47.353 -12.662 49.04 -9.549 50.189 C -6.439 51.338 -3.064 51.912 0.574 51.912 C 2.68 51.912 4.595 51.756 6.318 51.445 C 8.042 51.134 9.55 50.775 10.842 50.368 C 12.134 49.961 13.211 49.543 14.073 49.112 C 14.934 48.681 15.556 48.346 15.94 48.107 L 12.709 39.06 C 11.176 39.873 9.394 40.567 7.36 41.142 C 5.325 41.716 3.016 42.003 0.431 42.003 C -1.292 42.003 -2.98 41.716 -4.631 41.142 C -6.282 40.567 -7.743 39.645 -9.011 38.378 C -10.28 37.109 -11.297 35.47 -12.063 33.459 C -12.829 31.449 -13.211 29.008 -13.211 26.135 C -13.211 23.838 -12.96 21.695 -12.457 19.709 C -11.955 17.722 -11.141 16.012 -10.016 14.576 C -8.892 13.139 -7.42 12.002 -5.6 11.165 C -3.782 10.327 -1.579 9.908 1.005 9.908 C 2.632 9.908 4.093 10.004 5.385 10.196 C 6.678 10.386 7.826 10.614 8.832 10.878 C 9.837 11.14 10.722 11.44 11.488 11.775 C 12.253 12.11 12.948 12.422 13.57 12.709 L 16.658 3.734 C 15.078 2.775 12.853 1.914 9.981 1.149 C 7.108 0.384 3.781 0 0 0" style="fill: rgb(2, 4, 7); fill-opacity: 1;"/></g><g transform="matrix(1, 0, 0, 1, 287.177491, 240.205994)"><path d="M 0 0 C -0.814 0 -1.615 -0.025 -2.405 -0.072 C -3.195 -0.12 -3.877 -0.168 -4.451 -0.215 L -4.451 -14.576 L -0.933 -14.576 C 2.944 -14.576 5.863 -14.049 7.826 -12.996 C 9.788 -11.944 10.77 -9.98 10.77 -7.108 C 10.77 -5.721 10.519 -4.572 10.016 -3.662 C 9.514 -2.753 8.796 -2.023 7.862 -1.472 C 6.929 -0.922 5.791 -0.539 4.452 -0.323 C 3.111 -0.108 1.627 0 0 0 M -0.718 9.55 C 6.701 9.55 12.397 8.245 16.371 5.636 C 20.344 3.027 22.33 -1.245 22.33 -7.18 C 22.33 -13.164 20.32 -17.484 16.299 -20.14 C 12.278 -22.797 6.534 -24.125 -0.933 -24.125 L -4.451 -24.125 L -4.451 -40.783 L -15.653 -40.783 L -15.653 8.257 C -13.211 8.735 -10.626 9.07 -7.898 9.262 C -5.17 9.453 -2.777 9.55 -0.718 9.55" style="fill: rgb(2, 4, 7); fill-opacity: 1;"/></g><g><path d="M 314.377 249.181 L 325.578 249.181 L 325.578 199.423 L 314.377 199.423 Z" style="fill: rgb(2, 4, 7); fill-opacity: 1;"/></g><g transform="matrix(1, 0, 0, 1, 362.659912, 199.422898)"><path d="M 0 0 C -1.401 2.771 -2.935 5.578 -4.601 8.421 C -6.267 11.264 -8.18 13.668 -10.339 15.631 C -11.009 14.891 -11.858 13.862 -12.885 12.545 C -13.913 11.228 -14.939 9.828 -15.967 8.347 C -16.994 6.866 -17.957 5.33 -18.852 3.741 C -19.748 2.152 -20.414 0.904 -20.85 0 L -33.631 0 C -31.538 3.885 -29.066 7.897 -26.215 12.035 C -23.366 16.172 -20.186 20.564 -16.677 25.213 L -32.913 49.758 L -19.343 49.758 L -9.862 35.35 L -0.173 49.758 L 12.609 49.758 L -3.54 25.743 C 0.694 20.438 4.181 15.574 6.919 11.153 C 9.656 6.731 11.817 3.013 13.399 0 Z" style="fill: rgb(2, 4, 7); fill-opacity: 1;"/></g><g transform="matrix(1, 0, 0, 1, 237.835495, 175.266297)"><path d="M 0 0 C -1.578 0 -2.779 0.438 -3.604 1.315 C -4.431 2.192 -4.843 3.437 -4.843 5.051 C -4.843 5.854 -4.717 6.569 -4.465 7.2 C -4.212 7.829 -3.867 8.36 -3.429 8.794 C -2.99 9.228 -2.469 9.557 -1.861 9.781 C -1.255 10.005 -0.598 10.117 0.11 10.117 C 0.521 10.117 0.895 10.087 1.232 10.026 C 1.567 9.965 1.861 9.895 2.113 9.816 C 2.364 9.736 2.574 9.655 2.742 9.571 C 2.91 9.487 3.031 9.422 3.106 9.375 L 2.477 7.612 C 2.177 7.771 1.83 7.905 1.433 8.018 C 1.038 8.13 0.587 8.186 0.083 8.186 C -0.252 8.186 -0.581 8.13 -0.902 8.018 C -1.226 7.905 -1.51 7.726 -1.756 7.479 C -2.004 7.232 -2.202 6.912 -2.351 6.521 C -2.502 6.129 -2.575 5.653 -2.575 5.093 C -2.575 4.645 -2.527 4.228 -2.428 3.841 C -2.331 3.454 -2.173 3.121 -1.952 2.841 C -1.733 2.561 -1.447 2.339 -1.092 2.176 C -0.738 2.012 -0.308 1.931 0.196 1.931 C 0.513 1.931 0.798 1.949 1.05 1.987 C 1.301 2.024 1.524 2.068 1.72 2.119 C 1.917 2.171 2.089 2.229 2.238 2.295 C 2.388 2.36 2.523 2.421 2.643 2.477 L 3.245 0.727 C 2.938 0.54 2.504 0.373 1.944 0.224 C 1.385 0.075 0.736 0 0 0" style="fill: rgb(44, 46, 53); fill-opacity: 1;"/></g><g transform="matrix(1, 0, 0, 1, 246.719696, 179.883606)"><path d="M 0 0 C -0.008 0.177 -0.039 0.35 -0.091 0.518 C -0.141 0.685 -0.221 0.835 -0.327 0.965 C -0.436 1.096 -0.571 1.203 -0.734 1.288 C -0.897 1.371 -1.1 1.414 -1.342 1.414 C -1.576 1.414 -1.776 1.374 -1.944 1.294 C -2.113 1.215 -2.252 1.111 -2.364 0.98 C -2.477 0.849 -2.562 0.697 -2.624 0.525 C -2.684 0.352 -2.728 0.177 -2.756 0 Z M -4.897 -0.798 C -4.897 -0.144 -4.796 0.427 -4.595 0.917 C -4.396 1.407 -4.132 1.814 -3.805 2.141 C -3.48 2.467 -3.104 2.715 -2.678 2.882 C -2.254 3.051 -1.818 3.134 -1.371 3.134 C -0.325 3.134 0.5 2.815 1.106 2.176 C 1.712 1.537 2.016 0.597 2.016 -0.644 C 2.016 -0.765 2.012 -0.898 2.002 -1.043 C 1.993 -1.187 1.983 -1.315 1.973 -1.427 L -2.756 -1.427 C -2.709 -1.856 -2.51 -2.197 -2.153 -2.449 C -1.799 -2.7 -1.325 -2.826 -0.726 -2.826 C -0.345 -2.826 0.031 -2.791 0.399 -2.722 C 0.769 -2.652 1.069 -2.566 1.301 -2.463 L 1.582 -4.156 C 1.47 -4.212 1.321 -4.268 1.135 -4.324 C 0.947 -4.38 0.74 -4.429 0.511 -4.471 C 0.283 -4.513 0.039 -4.548 -0.223 -4.576 C -0.484 -4.604 -0.746 -4.617 -1.007 -4.617 C -1.669 -4.617 -2.244 -4.52 -2.734 -4.324 C -3.224 -4.127 -3.631 -3.86 -3.952 -3.519 C -4.274 -3.179 -4.512 -2.776 -4.667 -2.309 C -4.82 -1.842 -4.897 -1.339 -4.897 -0.798" style="fill: rgb(44, 46, 53); fill-opacity: 1;"/></g><g transform="matrix(1, 0, 0, 1, 250.344696, 182.570404)"><path d="M 0 0 C 0.354 0.103 0.811 0.198 1.371 0.287 C 1.931 0.376 2.519 0.42 3.135 0.42 C 3.759 0.42 4.279 0.338 4.694 0.175 C 5.11 0.012 5.437 -0.22 5.681 -0.518 C 5.923 -0.816 6.096 -1.171 6.198 -1.581 C 6.301 -1.992 6.353 -2.449 6.353 -2.953 L 6.353 -7.109 L 4.268 -7.109 L 4.268 -3.205 C 4.268 -2.533 4.179 -2.057 4.003 -1.778 C 3.824 -1.497 3.493 -1.357 3.009 -1.357 C 2.858 -1.357 2.701 -1.364 2.533 -1.379 C 2.364 -1.392 2.215 -1.409 2.086 -1.427 L 2.086 -7.109 L 0 -7.109 Z" style="fill: rgb(44, 46, 53); fill-opacity: 1;"/></g><g transform="matrix(1, 0, 0, 1, 258.516388, 184.654999)"><path d="M 0 0 L 2.084 0.336 L 2.084 -1.833 L 4.589 -1.833 L 4.589 -3.568 L 2.084 -3.568 L 2.084 -6.157 C 2.084 -6.595 2.161 -6.945 2.316 -7.206 C 2.469 -7.468 2.779 -7.598 3.245 -7.598 C 3.47 -7.598 3.701 -7.577 3.939 -7.535 C 4.177 -7.493 4.394 -7.435 4.589 -7.36 L 4.884 -8.983 C 4.632 -9.086 4.351 -9.175 4.043 -9.249 C 3.735 -9.324 3.358 -9.361 2.91 -9.361 C 2.341 -9.361 1.871 -9.284 1.497 -9.13 C 1.123 -8.976 0.825 -8.761 0.6 -8.486 C 0.378 -8.211 0.221 -7.877 0.132 -7.486 C 0.045 -7.094 0 -6.66 0 -6.185 Z" style="fill: rgb(44, 46, 53); fill-opacity: 1;"/></g><g transform="matrix(1, 0, 0, 1, 269.236389, 180.974793)"><path d="M 0 0 C -0.188 0.046 -0.407 0.096 -0.658 0.147 C -0.91 0.198 -1.181 0.225 -1.47 0.225 C -1.601 0.225 -1.756 0.212 -1.938 0.189 C -2.12 0.166 -2.258 0.14 -2.351 0.112 L -2.351 -5.513 L -4.436 -5.513 L -4.436 1.455 C -4.065 1.586 -3.623 1.71 -3.114 1.826 C -2.606 1.943 -2.039 2.001 -1.414 2.001 C -1.301 2.001 -1.168 1.995 -1.009 1.98 C -0.85 1.966 -0.691 1.948 -0.533 1.925 C -0.374 1.901 -0.215 1.873 -0.056 1.841 C 0.103 1.808 0.236 1.768 0.349 1.721 Z" style="fill: rgb(44, 46, 53); fill-opacity: 1;"/></g><g transform="matrix(1, 0, 0, 1, 275.32251, 179.156494)"><path d="M 0 0 C 0 0.643 -0.128 1.149 -0.385 1.518 C -0.641 1.886 -1.007 2.071 -1.483 2.071 C -1.96 2.071 -2.328 1.886 -2.589 1.518 C -2.85 1.149 -2.98 0.643 -2.98 0 C -2.98 -0.644 -2.85 -1.155 -2.589 -1.533 C -2.328 -1.91 -1.96 -2.099 -1.483 -2.099 C -1.007 -2.099 -0.641 -1.91 -0.385 -1.533 C -0.128 -1.155 0 -0.644 0 0 M 2.126 0 C 2.126 -0.579 2.043 -1.109 1.874 -1.589 C 1.706 -2.069 1.464 -2.48 1.146 -2.82 C 0.831 -3.161 0.449 -3.425 0.006 -3.61 C -0.436 -3.797 -0.933 -3.89 -1.483 -3.89 C -2.025 -3.89 -2.517 -3.797 -2.961 -3.61 C -3.402 -3.425 -3.784 -3.161 -4.101 -2.82 C -4.417 -2.48 -4.665 -2.069 -4.843 -1.589 C -5.019 -1.109 -5.108 -0.579 -5.108 0 C -5.108 0.578 -5.017 1.105 -4.835 1.581 C -4.653 2.056 -4.401 2.462 -4.08 2.798 C -3.757 3.134 -3.375 3.396 -2.932 3.581 C -2.488 3.768 -2.006 3.861 -1.483 3.861 C -0.953 3.861 -0.465 3.768 -0.021 3.581 C 0.422 3.396 0.802 3.134 1.119 2.798 C 1.437 2.462 1.683 2.056 1.861 1.581 C 2.037 1.105 2.126 0.578 2.126 0" style="fill: rgb(44, 46, 53); fill-opacity: 1;"/></g><g transform="matrix(1, 0, 0, 1, 284.195191, 179.198197)"><path d="M 0 0 C 0 -0.644 0.143 -1.162 0.434 -1.553 C 0.722 -1.945 1.152 -2.141 1.72 -2.141 C 1.907 -2.141 2.08 -2.134 2.238 -2.12 C 2.397 -2.106 2.527 -2.09 2.63 -2.071 L 2.63 1.721 C 2.5 1.805 2.329 1.875 2.118 1.931 C 1.909 1.987 1.696 2.015 1.483 2.015 C 0.494 2.015 0 1.343 0 0 M 4.715 -3.498 C 4.527 -3.554 4.314 -3.609 4.07 -3.66 C 3.828 -3.711 3.575 -3.755 3.309 -3.792 C 3.042 -3.829 2.773 -3.86 2.498 -3.883 C 2.221 -3.907 1.958 -3.918 1.706 -3.918 C 1.1 -3.918 0.56 -3.829 0.083 -3.652 C -0.393 -3.475 -0.794 -3.221 -1.121 -2.89 C -1.447 -2.559 -1.696 -2.157 -1.869 -1.687 C -2.041 -1.215 -2.128 -0.686 -2.128 -0.098 C -2.128 0.499 -2.053 1.038 -1.904 1.518 C -1.754 1.998 -1.539 2.407 -1.261 2.743 C -0.98 3.078 -0.637 3.335 -0.232 3.513 C 0.174 3.689 0.639 3.778 1.16 3.778 C 1.45 3.778 1.708 3.75 1.936 3.694 C 2.165 3.639 2.397 3.559 2.63 3.456 L 2.63 6.786 L 4.715 7.122 Z" style="fill: rgb(44, 46, 53); fill-opacity: 1;"/></g><g transform="matrix(1, 0, 0, 1, 295.414795, 179.883606)"><path d="M 0 0 C -0.008 0.177 -0.039 0.35 -0.091 0.518 C -0.141 0.685 -0.221 0.835 -0.327 0.965 C -0.436 1.096 -0.571 1.203 -0.734 1.288 C -0.897 1.371 -1.1 1.414 -1.342 1.414 C -1.576 1.414 -1.776 1.374 -1.944 1.294 C -2.113 1.215 -2.252 1.111 -2.364 0.98 C -2.477 0.849 -2.562 0.697 -2.624 0.525 C -2.684 0.352 -2.728 0.177 -2.755 0 Z M -4.897 -0.798 C -4.897 -0.144 -4.796 0.427 -4.595 0.917 C -4.396 1.407 -4.132 1.814 -3.805 2.141 C -3.48 2.467 -3.104 2.715 -2.678 2.882 C -2.254 3.051 -1.818 3.134 -1.371 3.134 C -0.325 3.134 0.5 2.815 1.106 2.176 C 1.712 1.537 2.016 0.597 2.016 -0.644 C 2.016 -0.765 2.012 -0.898 2.002 -1.043 C 1.993 -1.187 1.983 -1.315 1.973 -1.427 L -2.755 -1.427 C -2.709 -1.856 -2.51 -2.197 -2.153 -2.449 C -1.799 -2.7 -1.324 -2.826 -0.726 -2.826 C -0.345 -2.826 0.031 -2.791 0.399 -2.722 C 0.769 -2.652 1.069 -2.566 1.301 -2.463 L 1.582 -4.156 C 1.47 -4.212 1.321 -4.268 1.135 -4.324 C 0.947 -4.38 0.74 -4.429 0.511 -4.471 C 0.283 -4.513 0.039 -4.548 -0.223 -4.576 C -0.484 -4.604 -0.746 -4.617 -1.007 -4.617 C -1.669 -4.617 -2.244 -4.52 -2.734 -4.324 C -3.224 -4.127 -3.631 -3.86 -3.952 -3.519 C -4.274 -3.179 -4.512 -2.776 -4.667 -2.309 C -4.82 -1.842 -4.897 -1.339 -4.897 -0.798" style="fill: rgb(44, 46, 53); fill-opacity: 1;"/></g><g transform="matrix(1, 0, 0, 1, 305.588715, 183.409897)"><path d="M 0 0 C -0.159 0 -0.314 -0.005 -0.469 -0.014 C -0.622 -0.023 -0.755 -0.033 -0.868 -0.042 L -0.868 -2.841 L -0.18 -2.841 C 0.575 -2.841 1.144 -2.738 1.526 -2.533 C 1.909 -2.328 2.099 -1.945 2.099 -1.385 C 2.099 -1.114 2.051 -0.891 1.954 -0.714 C 1.855 -0.536 1.716 -0.394 1.534 -0.287 C 1.352 -0.179 1.129 -0.105 0.868 -0.063 C 0.608 -0.021 0.318 0 0 0 M -0.139 1.861 C 1.307 1.861 2.417 1.607 3.191 1.099 C 3.966 0.59 4.353 -0.243 4.353 -1.399 C 4.353 -2.566 3.962 -3.407 3.178 -3.925 C 2.393 -4.443 1.274 -4.702 -0.18 -4.702 L -0.868 -4.702 L -0.868 -7.948 L -3.05 -7.948 L -3.05 1.609 C -2.574 1.702 -2.07 1.768 -1.538 1.806 C -1.007 1.842 -0.54 1.861 -0.139 1.861" style="fill: rgb(44, 46, 53); fill-opacity: 1;"/></g><g transform="matrix(1, 0, 0, 1, 313.524201, 176.958695)"><path d="M 0 0 C 0.383 0 0.653 0.038 0.811 0.112 C 0.97 0.187 1.05 0.331 1.05 0.546 C 1.05 0.715 0.947 0.861 0.742 0.987 C 0.536 1.112 0.225 1.255 -0.196 1.414 C -0.523 1.535 -0.819 1.66 -1.084 1.791 C -1.35 1.922 -1.576 2.079 -1.762 2.261 C -1.95 2.442 -2.095 2.659 -2.198 2.911 C -2.3 3.163 -2.351 3.466 -2.351 3.821 C -2.351 4.511 -2.095 5.057 -1.582 5.458 C -1.069 5.859 -0.364 6.059 0.533 6.059 C 0.98 6.059 1.408 6.019 1.818 5.941 C 2.229 5.862 2.556 5.774 2.798 5.681 L 2.434 4.059 C 2.192 4.142 1.929 4.217 1.644 4.282 C 1.359 4.347 1.04 4.38 0.685 4.38 C 0.033 4.38 -0.294 4.198 -0.294 3.834 C -0.294 3.751 -0.279 3.676 -0.252 3.61 C -0.225 3.546 -0.168 3.483 -0.083 3.422 C 0 3.361 0.114 3.296 0.259 3.225 C 0.403 3.154 0.589 3.077 0.811 2.993 C 1.268 2.823 1.646 2.656 1.944 2.491 C 2.244 2.327 2.479 2.149 2.651 1.959 C 2.825 1.768 2.945 1.556 3.015 1.323 C 3.085 1.09 3.122 0.82 3.122 0.513 C 3.122 -0.213 2.848 -0.762 2.302 -1.135 C 1.756 -1.507 0.984 -1.692 -0.014 -1.692 C -0.666 -1.692 -1.21 -1.637 -1.644 -1.525 C -2.078 -1.413 -2.378 -1.32 -2.546 -1.245 L -2.198 0.448 C -1.842 0.308 -1.479 0.198 -1.106 0.119 C -0.732 0.04 -0.364 0 0 0" style="fill: rgb(44, 46, 53); fill-opacity: 1;"/></g><g><path d="M 320.282 175.462 L 318.196 175.462 L 318.196 182.822 L 320.282 182.822 Z M 320.478 184.949 C 320.478 184.567 320.354 184.266 320.106 184.047 C 319.86 183.827 319.568 183.718 319.233 183.718 C 318.896 183.718 318.605 183.827 318.357 184.047 C 318.11 184.266 317.986 184.567 317.986 184.949 C 317.986 185.332 318.11 185.633 318.357 185.852 C 318.605 186.07 318.896 186.181 319.233 186.181 C 319.568 186.181 319.86 186.07 320.106 185.852 C 320.354 185.633 320.478 185.332 320.478 184.949" style="fill: rgb(44, 46, 53); fill-opacity: 1;"/></g><g transform="matrix(1, 0, 0, 1, 321.891388, 179.141998)"><path d="M 0 0 C 0 0.532 0.087 1.033 0.259 1.505 C 0.432 1.975 0.682 2.386 1.007 2.736 C 1.334 3.086 1.731 3.363 2.198 3.569 C 2.665 3.773 3.195 3.876 3.793 3.876 C 4.185 3.876 4.543 3.841 4.87 3.771 C 5.197 3.701 5.513 3.601 5.821 3.47 L 5.387 1.805 C 5.192 1.879 4.977 1.945 4.744 2.001 C 4.51 2.057 4.25 2.086 3.96 2.086 C 3.344 2.086 2.885 1.894 2.581 1.511 C 2.279 1.129 2.128 0.624 2.128 0 C 2.128 -0.662 2.27 -1.175 2.554 -1.539 C 2.839 -1.904 3.335 -2.085 4.045 -2.085 C 4.297 -2.085 4.566 -2.061 4.857 -2.015 C 5.145 -1.968 5.41 -1.894 5.654 -1.791 L 5.947 -3.498 C 5.705 -3.601 5.403 -3.689 5.039 -3.764 C 4.675 -3.839 4.274 -3.876 3.834 -3.876 C 3.162 -3.876 2.585 -3.776 2.099 -3.576 C 1.615 -3.375 1.216 -3.102 0.902 -2.757 C 0.591 -2.412 0.362 -2.003 0.217 -1.533 C 0.072 -1.061 0 -0.551 0 0" style="fill: rgb(44, 46, 53); fill-opacity: 1;"/></g><g transform="matrix(1, 0, 0, 1, 333.645508, 179.156494)"><path d="M 0 0 C 0 0.643 -0.128 1.149 -0.385 1.518 C -0.641 1.886 -1.007 2.071 -1.483 2.071 C -1.96 2.071 -2.328 1.886 -2.589 1.518 C -2.85 1.149 -2.98 0.643 -2.98 0 C -2.98 -0.644 -2.85 -1.155 -2.589 -1.533 C -2.328 -1.91 -1.96 -2.099 -1.483 -2.099 C -1.007 -2.099 -0.641 -1.91 -0.385 -1.533 C -0.128 -1.155 0 -0.644 0 0 M 2.126 0 C 2.126 -0.579 2.043 -1.109 1.874 -1.589 C 1.706 -2.069 1.464 -2.48 1.146 -2.82 C 0.831 -3.161 0.449 -3.425 0.006 -3.61 C -0.436 -3.797 -0.933 -3.89 -1.483 -3.89 C -2.025 -3.89 -2.517 -3.797 -2.961 -3.61 C -3.402 -3.425 -3.784 -3.161 -4.101 -2.82 C -4.417 -2.48 -4.665 -2.069 -4.843 -1.589 C -5.019 -1.109 -5.108 -0.579 -5.108 0 C -5.108 0.578 -5.017 1.105 -4.835 1.581 C -4.653 2.056 -4.401 2.462 -4.08 2.798 C -3.757 3.134 -3.375 3.396 -2.932 3.581 C -2.488 3.768 -2.006 3.861 -1.483 3.861 C -0.953 3.861 -0.465 3.768 -0.021 3.581 C 0.422 3.396 0.802 3.134 1.119 2.798 C 1.437 2.462 1.683 2.056 1.861 1.581 C 2.037 1.105 2.126 0.578 2.126 0" style="fill: rgb(44, 46, 53); fill-opacity: 1;"/></g><g transform="matrix(1, 0, 0, 1, 340.31839, 175.321396)"><path d="M 0 0 C -0.606 0.01 -1.098 0.076 -1.476 0.197 C -1.853 0.318 -2.151 0.488 -2.37 0.707 C -2.591 0.927 -2.74 1.192 -2.819 1.505 C -2.899 1.817 -2.938 2.17 -2.938 2.561 L -2.938 10.663 L -0.852 10.999 L -0.852 2.981 C -0.852 2.794 -0.838 2.627 -0.811 2.478 C -0.782 2.328 -0.73 2.202 -0.651 2.099 C -0.571 1.996 -0.457 1.913 -0.308 1.847 C -0.159 1.782 0.043 1.74 0.294 1.721 Z" style="fill: rgb(44, 46, 53); fill-opacity: 1;"/></g><g transform="matrix(1, 0, 0, 1, 346.561402, 179.156494)"><path d="M 0 0 C 0 0.643 -0.128 1.149 -0.385 1.518 C -0.641 1.886 -1.007 2.071 -1.483 2.071 C -1.96 2.071 -2.328 1.886 -2.589 1.518 C -2.85 1.149 -2.98 0.643 -2.98 0 C -2.98 -0.644 -2.85 -1.155 -2.589 -1.533 C -2.328 -1.91 -1.96 -2.099 -1.483 -2.099 C -1.007 -2.099 -0.641 -1.91 -0.385 -1.533 C -0.128 -1.155 0 -0.644 0 0 M 2.126 0 C 2.126 -0.579 2.043 -1.109 1.874 -1.589 C 1.706 -2.069 1.464 -2.48 1.146 -2.82 C 0.831 -3.161 0.449 -3.425 0.006 -3.61 C -0.436 -3.797 -0.933 -3.89 -1.483 -3.89 C -2.025 -3.89 -2.517 -3.797 -2.961 -3.61 C -3.402 -3.425 -3.784 -3.161 -4.101 -2.82 C -4.417 -2.48 -4.665 -2.069 -4.843 -1.589 C -5.019 -1.109 -5.108 -0.579 -5.108 0 C -5.108 0.578 -5.017 1.105 -4.835 1.581 C -4.653 2.056 -4.401 2.462 -4.08 2.798 C -3.757 3.134 -3.375 3.396 -2.932 3.581 C -2.488 3.768 -2.006 3.861 -1.483 3.861 C -0.953 3.861 -0.465 3.768 -0.021 3.581 C 0.422 3.396 0.802 3.134 1.119 2.798 C 1.437 2.462 1.683 2.056 1.861 1.581 C 2.037 1.105 2.126 0.578 2.126 0" style="fill: rgb(44, 46, 53); fill-opacity: 1;"/></g><g transform="matrix(1, 0, 0, 1, 352.074311, 179.380203)"><path d="M 0 0 C 0 -1.167 0.471 -1.75 1.412 -1.75 C 1.627 -1.75 1.828 -1.721 2.014 -1.665 C 2.202 -1.609 2.359 -1.544 2.49 -1.47 L 2.49 1.861 C 2.388 1.879 2.266 1.896 2.126 1.91 C 1.987 1.924 1.822 1.931 1.636 1.931 C 1.086 1.931 0.676 1.749 0.405 1.385 C 0.134 1.021 0 0.56 0 0 M 4.576 -2.995 C 4.576 -4.198 4.27 -5.092 3.658 -5.675 C 3.048 -6.258 2.103 -6.549 0.825 -6.549 C 0.378 -6.549 -0.072 -6.509 -0.519 -6.43 C -0.966 -6.35 -1.381 -6.246 -1.764 -6.115 L -1.4 -4.366 C -1.073 -4.496 -0.73 -4.599 -0.372 -4.674 C -0.014 -4.748 0.395 -4.786 0.852 -4.786 C 1.45 -4.786 1.873 -4.655 2.118 -4.394 C 2.366 -4.133 2.49 -3.797 2.49 -3.387 L 2.49 -3.121 C 2.266 -3.223 2.035 -3.301 1.797 -3.352 C 1.559 -3.403 1.301 -3.428 1.021 -3.428 C 0.004 -3.428 -0.775 -3.127 -1.317 -2.526 C -1.857 -1.924 -2.128 -1.082 -2.128 0 C -2.128 0.54 -2.043 1.033 -1.876 1.477 C -1.708 1.919 -1.464 2.299 -1.141 2.616 C -0.819 2.934 -0.426 3.179 0.041 3.351 C 0.507 3.523 1.034 3.61 1.623 3.61 C 1.874 3.61 2.134 3.598 2.399 3.575 C 2.665 3.551 2.928 3.521 3.189 3.485 C 3.451 3.447 3.701 3.402 3.939 3.351 C 4.177 3.3 4.388 3.246 4.576 3.19 Z" style="fill: rgb(44, 46, 53); fill-opacity: 1;"/></g><g><path d="M 360.695 175.462 L 358.609 175.462 L 358.609 182.822 L 360.695 182.822 Z M 361.464 185.467 L 359.162 183.522 L 358.203 184.375 L 360.184 186.643 Z" style="fill: rgb(44, 46, 53); fill-opacity: 1;"/></g><g transform="matrix(1, 0, 0, 1, 365.464692, 176.917099)"><path d="M 0 0 C 0.205 0 0.401 0.005 0.589 0.015 C 0.775 0.023 0.924 0.037 1.036 0.056 L 1.036 1.637 C 0.953 1.656 0.827 1.674 0.658 1.693 C 0.49 1.712 0.337 1.721 0.198 1.721 C 0 1.721 -0.184 1.71 -0.356 1.687 C -0.529 1.662 -0.68 1.619 -0.811 1.553 C -0.941 1.488 -1.044 1.399 -1.119 1.288 C -1.193 1.175 -1.232 1.036 -1.232 0.868 C -1.232 0.541 -1.121 0.315 -0.902 0.189 C -0.684 0.063 -0.381 0 0 0 M -0.167 6.101 C 0.449 6.101 0.96 6.031 1.373 5.892 C 1.782 5.751 2.111 5.551 2.359 5.289 C 2.606 5.028 2.781 4.711 2.883 4.338 C 2.986 3.965 3.036 3.549 3.036 3.092 L 3.036 -1.245 C 2.738 -1.311 2.324 -1.387 1.791 -1.477 C 1.261 -1.565 0.616 -1.609 -0.139 -1.609 C -0.616 -1.609 -1.048 -1.568 -1.433 -1.483 C -1.82 -1.399 -2.155 -1.262 -2.434 -1.071 C -2.715 -0.879 -2.928 -0.629 -3.077 -0.321 C -3.228 -0.014 -3.302 0.364 -3.302 0.811 C -3.302 1.24 -3.216 1.604 -3.042 1.903 C -2.87 2.202 -2.639 2.44 -2.351 2.617 C -2.06 2.794 -1.729 2.922 -1.357 3.001 C -0.984 3.081 -0.596 3.121 -0.196 3.121 C 0.076 3.121 0.316 3.109 0.525 3.086 C 0.736 3.062 0.906 3.031 1.036 2.995 L 1.036 3.19 C 1.036 3.545 0.929 3.829 0.715 4.044 C 0.5 4.258 0.126 4.366 -0.405 4.366 C -0.759 4.366 -1.11 4.34 -1.454 4.289 C -1.799 4.238 -2.099 4.165 -2.351 4.072 L -2.616 5.751 C -2.494 5.789 -2.343 5.829 -2.161 5.87 C -1.979 5.912 -1.781 5.95 -1.567 5.983 C -1.352 6.015 -1.125 6.043 -0.889 6.066 C -0.651 6.089 -0.411 6.101 -0.167 6.101" style="fill: rgb(44, 46, 53); fill-opacity: 1;"/></g><g><path d="M 223.562 168.368 L 225.744 168.368 L 225.744 158.67 L 223.562 158.67 Z" style="fill: rgb(44, 46, 53); fill-opacity: 1;"/></g><g transform="matrix(1, 0, 0, 1, 227.843598, 165.778793)"><path d="M 0 0 C 0.354 0.103 0.811 0.198 1.371 0.287 C 1.931 0.376 2.519 0.42 3.135 0.42 C 3.759 0.42 4.279 0.338 4.694 0.175 C 5.11 0.012 5.437 -0.22 5.681 -0.518 C 5.923 -0.816 6.096 -1.171 6.198 -1.581 C 6.301 -1.992 6.353 -2.449 6.353 -2.953 L 6.353 -7.109 L 4.268 -7.109 L 4.268 -3.205 C 4.268 -2.533 4.179 -2.057 4.003 -1.778 C 3.824 -1.497 3.493 -1.357 3.009 -1.357 C 2.858 -1.357 2.701 -1.364 2.533 -1.379 C 2.364 -1.392 2.215 -1.409 2.086 -1.427 L 2.086 -7.109 L 0 -7.109 Z" style="fill: rgb(44, 46, 53); fill-opacity: 1;"/></g><g transform="matrix(1, 0, 0, 1, 239.2762, 169.528702)"><path d="M 0 0 C 0.393 0 0.751 -0.04 1.079 -0.119 C 1.404 -0.198 1.658 -0.275 1.834 -0.35 L 1.429 -2.015 C 1.241 -1.931 1.038 -1.868 0.819 -1.826 C 0.6 -1.783 0.397 -1.763 0.211 -1.763 C -0.041 -1.763 -0.254 -1.798 -0.426 -1.868 C -0.598 -1.937 -0.734 -2.033 -0.833 -2.154 C -0.929 -2.276 -0.999 -2.421 -1.042 -2.588 C -1.084 -2.757 -1.104 -2.939 -1.104 -3.134 L -1.104 -3.498 L 1.47 -3.498 L 1.47 -5.233 L -1.104 -5.233 L -1.104 -10.858 L -3.189 -10.858 L -3.189 -3.106 C -3.189 -2.154 -2.922 -1.399 -2.386 -0.839 C -1.849 -0.28 -1.053 0 0 0" style="fill: rgb(44, 46, 53); fill-opacity: 1;"/></g><g transform="matrix(1, 0, 0, 1, 244.690399, 160.125397)"><path d="M 0 0 C 0.205 0 0.401 0.005 0.589 0.015 C 0.775 0.023 0.924 0.037 1.036 0.056 L 1.036 1.637 C 0.953 1.656 0.827 1.674 0.658 1.693 C 0.49 1.712 0.337 1.721 0.198 1.721 C 0 1.721 -0.184 1.71 -0.356 1.687 C -0.529 1.662 -0.68 1.619 -0.811 1.553 C -0.941 1.488 -1.044 1.399 -1.119 1.288 C -1.193 1.175 -1.232 1.036 -1.232 0.868 C -1.232 0.541 -1.121 0.315 -0.902 0.189 C -0.684 0.063 -0.381 0 0 0 M -0.167 6.101 C 0.449 6.101 0.96 6.031 1.373 5.892 C 1.782 5.751 2.111 5.551 2.359 5.289 C 2.606 5.028 2.781 4.711 2.883 4.338 C 2.986 3.965 3.036 3.549 3.036 3.092 L 3.036 -1.245 C 2.738 -1.311 2.324 -1.387 1.791 -1.477 C 1.261 -1.565 0.616 -1.609 -0.139 -1.609 C -0.616 -1.609 -1.048 -1.568 -1.433 -1.483 C -1.82 -1.399 -2.155 -1.262 -2.434 -1.071 C -2.715 -0.879 -2.928 -0.629 -3.077 -0.321 C -3.228 -0.014 -3.302 0.364 -3.302 0.811 C -3.302 1.24 -3.216 1.604 -3.042 1.904 C -2.87 2.202 -2.639 2.44 -2.351 2.617 C -2.06 2.794 -1.729 2.922 -1.357 3.001 C -0.984 3.081 -0.596 3.121 -0.196 3.121 C 0.076 3.121 0.316 3.109 0.525 3.086 C 0.736 3.062 0.906 3.031 1.036 2.995 L 1.036 3.19 C 1.036 3.545 0.929 3.829 0.715 4.044 C 0.5 4.258 0.126 4.366 -0.405 4.366 C -0.759 4.366 -1.11 4.34 -1.454 4.289 C -1.799 4.238 -2.099 4.165 -2.351 4.072 L -2.616 5.751 C -2.494 5.789 -2.343 5.829 -2.161 5.87 C -1.979 5.912 -1.782 5.95 -1.567 5.983 C -1.352 6.015 -1.125 6.043 -0.889 6.066 C -0.651 6.089 -0.411 6.101 -0.167 6.101" style="fill: rgb(44, 46, 53); fill-opacity: 1;"/></g><g transform="matrix(1, 0, 0, 1, 249.618607, 165.778793)"><path d="M 0 0 C 0.354 0.103 0.811 0.198 1.371 0.287 C 1.931 0.376 2.519 0.42 3.135 0.42 C 3.759 0.42 4.279 0.338 4.694 0.175 C 5.11 0.012 5.437 -0.22 5.681 -0.518 C 5.923 -0.816 6.096 -1.171 6.198 -1.581 C 6.301 -1.992 6.353 -2.449 6.353 -2.953 L 6.353 -7.109 L 4.268 -7.109 L 4.268 -3.205 C 4.268 -2.533 4.179 -2.057 4.003 -1.778 C 3.824 -1.497 3.493 -1.357 3.009 -1.357 C 2.858 -1.357 2.701 -1.364 2.533 -1.379 C 2.364 -1.392 2.215 -1.409 2.086 -1.427 L 2.086 -7.109 L 0 -7.109 Z" style="fill: rgb(44, 46, 53); fill-opacity: 1;"/></g><g transform="matrix(1, 0, 0, 1, 257.790314, 167.863297)"><path d="M 0 0 L 2.084 0.336 L 2.084 -1.833 L 4.589 -1.833 L 4.589 -3.568 L 2.084 -3.568 L 2.084 -6.157 C 2.084 -6.595 2.161 -6.945 2.316 -7.206 C 2.469 -7.468 2.779 -7.598 3.245 -7.598 C 3.47 -7.598 3.7 -7.577 3.939 -7.535 C 4.177 -7.493 4.394 -7.435 4.589 -7.36 L 4.884 -8.983 C 4.632 -9.086 4.351 -9.175 4.043 -9.249 C 3.735 -9.324 3.358 -9.361 2.91 -9.361 C 2.341 -9.361 1.871 -9.284 1.497 -9.13 C 1.123 -8.976 0.825 -8.761 0.6 -8.486 C 0.378 -8.211 0.221 -7.877 0.132 -7.486 C 0.045 -7.094 0 -6.66 0 -6.185 Z" style="fill: rgb(44, 46, 53); fill-opacity: 1;"/></g><g transform="matrix(1, 0, 0, 1, 268.550904, 162.364899)"><path d="M 0 0 C 0 0.643 -0.128 1.149 -0.385 1.518 C -0.641 1.886 -1.007 2.071 -1.483 2.071 C -1.96 2.071 -2.328 1.886 -2.589 1.518 C -2.85 1.149 -2.98 0.643 -2.98 0 C -2.98 -0.644 -2.85 -1.155 -2.589 -1.533 C -2.328 -1.91 -1.96 -2.099 -1.483 -2.099 C -1.007 -2.099 -0.641 -1.91 -0.385 -1.533 C -0.128 -1.155 0 -0.644 0 0 M 2.126 0 C 2.126 -0.579 2.043 -1.109 1.874 -1.589 C 1.706 -2.069 1.464 -2.48 1.146 -2.82 C 0.831 -3.161 0.449 -3.425 0.006 -3.61 C -0.436 -3.797 -0.933 -3.89 -1.483 -3.89 C -2.025 -3.89 -2.517 -3.797 -2.961 -3.61 C -3.402 -3.425 -3.784 -3.161 -4.101 -2.82 C -4.417 -2.48 -4.665 -2.069 -4.843 -1.589 C -5.019 -1.109 -5.108 -0.579 -5.108 0 C -5.108 0.578 -5.017 1.105 -4.835 1.581 C -4.653 2.056 -4.401 2.462 -4.08 2.798 C -3.757 3.134 -3.375 3.396 -2.932 3.581 C -2.488 3.768 -2.006 3.861 -1.483 3.861 C -0.953 3.861 -0.465 3.768 -0.021 3.581 C 0.422 3.396 0.802 3.134 1.119 2.798 C 1.437 2.462 1.683 2.056 1.861 1.581 C 2.037 1.105 2.126 0.578 2.126 0" style="fill: rgb(44, 46, 53); fill-opacity: 1;"/></g><g><path d="M 275.015 163.792 L 279.072 163.792 L 279.072 161.903 L 275.015 161.903 Z" style="fill: rgb(44, 46, 53); fill-opacity: 1;"/></g><g transform="matrix(1, 0, 0, 1, 289.204712, 161.930206)"><path d="M 0 0 C 0 -0.475 -0.054 -0.923 -0.161 -1.343 C -0.269 -1.763 -0.455 -2.129 -0.72 -2.442 C -0.988 -2.754 -1.346 -3.001 -1.799 -3.183 C -2.25 -3.365 -2.821 -3.456 -3.513 -3.456 C -4.148 -3.456 -4.692 -3.379 -5.149 -3.225 C -5.606 -3.071 -5.985 -2.891 -6.284 -2.686 L -5.556 -0.993 C -5.284 -1.152 -4.996 -1.292 -4.688 -1.413 C -4.38 -1.535 -4.045 -1.595 -3.681 -1.595 C -3.149 -1.595 -2.767 -1.464 -2.533 -1.203 C -2.3 -0.942 -2.182 -0.503 -2.182 0.112 L -2.182 6.438 L 0 6.438 Z" style="fill: rgb(44, 46, 53); fill-opacity: 1;"/></g><g transform="matrix(1, 0, 0, 1, 297.444214, 158.921906)"><path d="M 0 0 C -0.354 -0.103 -0.811 -0.198 -1.371 -0.287 C -1.931 -0.376 -2.517 -0.419 -3.133 -0.419 C -3.759 -0.419 -4.279 -0.336 -4.694 -0.168 C -5.108 0 -5.437 0.235 -5.68 0.539 C -5.923 0.842 -6.096 1.203 -6.198 1.624 C -6.301 2.043 -6.351 2.505 -6.351 3.008 L -6.351 7.109 L -4.268 7.109 L -4.268 3.261 C -4.268 2.589 -4.179 2.104 -4.001 1.806 C -3.824 1.507 -3.493 1.357 -3.007 1.357 C -2.858 1.357 -2.699 1.364 -2.531 1.379 C -2.364 1.392 -2.215 1.409 -2.084 1.427 L -2.084 7.109 L 0 7.109 Z" style="fill: rgb(44, 46, 53); fill-opacity: 1;"/></g><g transform="matrix(1, 0, 0, 1, 301.193116, 158.670197)"><path d="M 0 0 C -0.478 0.932 -0.962 2.025 -1.454 3.274 C -1.946 4.524 -2.413 5.887 -2.852 7.36 L -0.641 7.36 C -0.548 6.996 -0.438 6.602 -0.31 6.178 C -0.184 5.753 -0.052 5.324 0.083 4.89 C 0.219 4.457 0.354 4.035 0.49 3.624 C 0.627 3.213 0.761 2.841 0.891 2.505 C 1.013 2.841 1.144 3.213 1.284 3.624 C 1.425 4.035 1.563 4.457 1.698 4.89 C 1.834 5.324 1.965 5.753 2.091 6.178 C 2.219 6.602 2.329 6.996 2.422 7.36 L 4.578 7.36 C 4.138 5.887 3.673 4.524 3.182 3.274 C 2.692 2.025 2.208 0.932 1.729 0 Z" style="fill: rgb(44, 46, 53); fill-opacity: 1;"/></g><g transform="matrix(1, 0, 0, 1, 311.2276, 163.091995)"><path d="M 0 0 C -0.008 0.177 -0.039 0.35 -0.091 0.518 C -0.141 0.685 -0.221 0.835 -0.327 0.965 C -0.436 1.096 -0.571 1.203 -0.734 1.288 C -0.897 1.371 -1.1 1.414 -1.342 1.414 C -1.576 1.414 -1.776 1.374 -1.944 1.294 C -2.113 1.215 -2.252 1.111 -2.364 0.98 C -2.477 0.849 -2.562 0.697 -2.624 0.525 C -2.684 0.352 -2.728 0.177 -2.755 0 Z M -4.897 -0.798 C -4.897 -0.144 -4.796 0.427 -4.595 0.917 C -4.396 1.407 -4.132 1.814 -3.805 2.141 C -3.48 2.467 -3.104 2.715 -2.678 2.882 C -2.254 3.051 -1.818 3.134 -1.371 3.134 C -0.325 3.134 0.5 2.815 1.106 2.176 C 1.712 1.537 2.016 0.597 2.016 -0.644 C 2.016 -0.765 2.012 -0.898 2.002 -1.043 C 1.993 -1.187 1.983 -1.315 1.973 -1.427 L -2.755 -1.427 C -2.709 -1.856 -2.51 -2.197 -2.153 -2.449 C -1.799 -2.7 -1.324 -2.826 -0.726 -2.826 C -0.345 -2.826 0.031 -2.791 0.399 -2.722 C 0.769 -2.652 1.069 -2.566 1.301 -2.463 L 1.582 -4.156 C 1.47 -4.212 1.321 -4.268 1.135 -4.324 C 0.947 -4.38 0.74 -4.429 0.511 -4.471 C 0.283 -4.513 0.039 -4.548 -0.223 -4.576 C -0.484 -4.604 -0.746 -4.617 -1.007 -4.617 C -1.669 -4.617 -2.244 -4.52 -2.734 -4.324 C -3.224 -4.127 -3.631 -3.86 -3.952 -3.519 C -4.274 -3.179 -4.512 -2.776 -4.667 -2.309 C -4.82 -1.843 -4.897 -1.339 -4.897 -0.798" style="fill: rgb(44, 46, 53); fill-opacity: 1;"/></g><g transform="matrix(1, 0, 0, 1, 314.8526, 165.778793)"><path d="M 0 0 C 0.354 0.103 0.811 0.198 1.371 0.287 C 1.931 0.376 2.519 0.42 3.135 0.42 C 3.759 0.42 4.279 0.338 4.694 0.175 C 5.11 0.012 5.437 -0.22 5.681 -0.518 C 5.923 -0.816 6.096 -1.171 6.198 -1.581 C 6.301 -1.992 6.353 -2.449 6.353 -2.953 L 6.353 -7.109 L 4.268 -7.109 L 4.268 -3.205 C 4.268 -2.533 4.179 -2.057 4.003 -1.778 C 3.824 -1.497 3.493 -1.357 3.009 -1.357 C 2.858 -1.357 2.701 -1.364 2.533 -1.379 C 2.364 -1.392 2.215 -1.409 2.086 -1.427 L 2.086 -7.109 L 0 -7.109 Z" style="fill: rgb(44, 46, 53); fill-opacity: 1;"/></g><g><path d="M 325.181 158.67 L 323.095 158.67 L 323.095 166.03 L 325.181 166.03 Z M 325.377 168.158 C 325.377 167.775 325.253 167.474 325.005 167.255 C 324.759 167.036 324.467 166.926 324.132 166.926 C 323.795 166.926 323.504 167.036 323.257 167.255 C 323.009 167.474 322.885 167.775 322.885 168.158 C 322.885 168.54 323.009 168.841 323.257 169.06 C 323.504 169.279 323.795 169.389 324.132 169.389 C 324.467 169.389 324.759 169.279 325.005 169.06 C 325.253 168.841 325.377 168.54 325.377 168.158" style="fill: rgb(44, 46, 53); fill-opacity: 1;"/></g><g transform="matrix(1, 0, 0, 1, 330.076691, 158.529801)"><path d="M 0 0 C -0.606 0.01 -1.098 0.076 -1.476 0.197 C -1.853 0.318 -2.151 0.488 -2.37 0.707 C -2.591 0.927 -2.74 1.192 -2.819 1.505 C -2.899 1.817 -2.938 2.17 -2.938 2.561 L -2.938 10.663 L -0.852 10.999 L -0.852 2.981 C -0.852 2.794 -0.838 2.627 -0.811 2.478 C -0.782 2.328 -0.73 2.202 -0.651 2.099 C -0.571 1.996 -0.457 1.913 -0.308 1.847 C -0.159 1.782 0.043 1.74 0.294 1.721 Z" style="fill: rgb(44, 46, 53); fill-opacity: 1;"/></g><g transform="matrix(1, 0, 0, 1, 340.634003, 158.670197)"><path d="M 0 0 C -0.273 0.54 -0.571 1.087 -0.897 1.641 C -1.222 2.195 -1.594 2.664 -2.016 3.046 C -2.146 2.902 -2.31 2.701 -2.512 2.445 C -2.711 2.188 -2.912 1.915 -3.112 1.627 C -3.311 1.338 -3.499 1.039 -3.673 0.729 C -3.848 0.419 -3.979 0.176 -4.063 0 L -6.555 0 C -6.146 0.757 -5.664 1.539 -5.108 2.345 C -4.554 3.152 -3.935 4.007 -3.249 4.914 L -6.413 9.698 L -3.77 9.698 L -1.921 6.889 L -0.033 9.698 L 2.457 9.698 L -0.689 5.017 C 0.136 3.983 0.815 3.035 1.348 2.174 C 1.882 1.312 2.302 0.588 2.612 0 Z" style="fill: rgb(44, 46, 53); fill-opacity: 1;"/></g><g transform="matrix(1, 0, 0, 1, 346.756989, 160.125397)"><path d="M 0 0 C 0.205 0 0.401 0.005 0.589 0.015 C 0.775 0.023 0.924 0.037 1.036 0.056 L 1.036 1.637 C 0.953 1.656 0.827 1.674 0.658 1.693 C 0.49 1.712 0.337 1.721 0.198 1.721 C 0 1.721 -0.184 1.71 -0.356 1.687 C -0.529 1.662 -0.68 1.619 -0.811 1.553 C -0.941 1.488 -1.044 1.399 -1.119 1.288 C -1.193 1.175 -1.232 1.036 -1.232 0.868 C -1.232 0.541 -1.121 0.315 -0.902 0.189 C -0.684 0.063 -0.381 0 0 0 M -0.167 6.101 C 0.449 6.101 0.96 6.031 1.373 5.892 C 1.781 5.751 2.111 5.551 2.359 5.289 C 2.606 5.028 2.781 4.711 2.883 4.338 C 2.986 3.965 3.036 3.549 3.036 3.092 L 3.036 -1.245 C 2.738 -1.311 2.324 -1.387 1.791 -1.477 C 1.261 -1.565 0.616 -1.609 -0.139 -1.609 C -0.616 -1.609 -1.048 -1.568 -1.433 -1.483 C -1.82 -1.399 -2.155 -1.262 -2.434 -1.071 C -2.715 -0.879 -2.928 -0.629 -3.077 -0.321 C -3.228 -0.014 -3.302 0.364 -3.302 0.811 C -3.302 1.24 -3.216 1.604 -3.042 1.904 C -2.87 2.202 -2.639 2.44 -2.351 2.617 C -2.06 2.794 -1.729 2.922 -1.357 3.001 C -0.984 3.081 -0.596 3.121 -0.196 3.121 C 0.076 3.121 0.316 3.109 0.525 3.086 C 0.736 3.062 0.906 3.031 1.036 2.995 L 1.036 3.19 C 1.036 3.545 0.929 3.829 0.715 4.044 C 0.5 4.258 0.126 4.366 -0.405 4.366 C -0.759 4.366 -1.11 4.34 -1.454 4.289 C -1.799 4.238 -2.099 4.165 -2.351 4.072 L -2.616 5.751 C -2.494 5.789 -2.343 5.829 -2.161 5.87 C -1.979 5.912 -1.782 5.95 -1.567 5.983 C -1.352 6.015 -1.125 6.043 -0.889 6.066 C -0.651 6.089 -0.411 6.101 -0.167 6.101" style="fill: rgb(44, 46, 53); fill-opacity: 1;"/></g><g transform="matrix(1, 0, 0, 1, 354.620697, 158.529801)"><path d="M 0 0 C -0.606 0.01 -1.098 0.076 -1.476 0.197 C -1.853 0.318 -2.151 0.488 -2.37 0.707 C -2.591 0.927 -2.74 1.192 -2.819 1.505 C -2.899 1.817 -2.938 2.17 -2.938 2.561 L -2.938 10.663 L -0.852 10.999 L -0.852 2.981 C -0.852 2.794 -0.838 2.627 -0.811 2.478 C -0.782 2.328 -0.73 2.202 -0.651 2.099 C -0.571 1.996 -0.457 1.913 -0.308 1.847 C -0.159 1.782 0.043 1.74 0.294 1.721 Z" style="fill: rgb(44, 46, 53); fill-opacity: 1;"/></g><g transform="matrix(1, 0, 0, 1, 359.126801, 160.125397)"><path d="M 0 0 C 0.205 0 0.401 0.005 0.589 0.015 C 0.775 0.023 0.924 0.037 1.036 0.056 L 1.036 1.637 C 0.953 1.656 0.827 1.674 0.658 1.693 C 0.49 1.712 0.337 1.721 0.198 1.721 C 0 1.721 -0.184 1.71 -0.356 1.687 C -0.529 1.662 -0.68 1.619 -0.811 1.553 C -0.941 1.488 -1.044 1.399 -1.119 1.288 C -1.193 1.175 -1.232 1.036 -1.232 0.868 C -1.232 0.541 -1.121 0.315 -0.902 0.189 C -0.684 0.063 -0.381 0 0 0 M -0.167 6.101 C 0.449 6.101 0.96 6.031 1.373 5.892 C 1.782 5.751 2.111 5.551 2.359 5.289 C 2.606 5.028 2.781 4.711 2.883 4.338 C 2.986 3.965 3.036 3.549 3.036 3.092 L 3.036 -1.245 C 2.738 -1.311 2.324 -1.387 1.791 -1.477 C 1.261 -1.565 0.616 -1.609 -0.139 -1.609 C -0.616 -1.609 -1.048 -1.568 -1.433 -1.483 C -1.82 -1.399 -2.155 -1.262 -2.434 -1.071 C -2.715 -0.879 -2.928 -0.629 -3.077 -0.321 C -3.228 -0.014 -3.302 0.364 -3.302 0.811 C -3.302 1.24 -3.216 1.604 -3.042 1.904 C -2.87 2.202 -2.639 2.44 -2.351 2.617 C -2.06 2.794 -1.729 2.922 -1.357 3.001 C -0.984 3.081 -0.596 3.121 -0.196 3.121 C 0.076 3.121 0.316 3.109 0.525 3.086 C 0.736 3.062 0.906 3.031 1.036 2.995 L 1.036 3.19 C 1.036 3.545 0.929 3.829 0.715 4.044 C 0.5 4.258 0.126 4.366 -0.405 4.366 C -0.759 4.366 -1.11 4.34 -1.454 4.289 C -1.799 4.238 -2.099 4.165 -2.351 4.072 L -2.616 5.751 C -2.494 5.789 -2.343 5.829 -2.161 5.87 C -1.979 5.912 -1.781 5.95 -1.567 5.983 C -1.352 6.015 -1.125 6.043 -0.889 6.066 C -0.651 6.089 -0.411 6.101 -0.167 6.101" style="fill: rgb(44, 46, 53); fill-opacity: 1;"/></g><g transform="matrix(1, 0, 0, 1, 368.768189, 162.294205)"><path d="M 0 0 C 0 0.644 -0.145 1.159 -0.434 1.546 C -0.722 1.934 -1.152 2.127 -1.721 2.127 C -1.907 2.127 -2.08 2.12 -2.238 2.106 C -2.397 2.092 -2.527 2.076 -2.63 2.057 L -2.63 -1.707 C -2.5 -1.791 -2.329 -1.861 -2.12 -1.917 C -1.909 -1.973 -1.698 -2 -1.483 -2 C -0.494 -2 0 -1.334 0 0 M 2.128 0.056 C 2.128 -0.513 2.056 -1.03 1.917 -1.497 C 1.778 -1.964 1.572 -2.364 1.301 -2.7 C 1.03 -3.036 0.695 -3.298 0.294 -3.484 C -0.107 -3.67 -0.569 -3.764 -1.092 -3.764 C -1.381 -3.764 -1.652 -3.736 -1.904 -3.68 C -2.155 -3.624 -2.397 -3.545 -2.63 -3.442 L -2.63 -6.213 L -4.715 -6.213 L -4.715 3.485 C -4.529 3.541 -4.314 3.594 -4.072 3.645 C -3.83 3.697 -3.575 3.741 -3.309 3.779 C -3.044 3.816 -2.773 3.846 -2.498 3.869 C -2.223 3.892 -1.96 3.905 -1.706 3.905 C -1.1 3.905 -0.56 3.814 -0.083 3.632 C 0.391 3.45 0.794 3.193 1.119 2.862 C 1.447 2.531 1.696 2.127 1.869 1.652 C 2.041 1.175 2.128 0.644 2.128 0.056" style="fill: rgb(44, 46, 53); fill-opacity: 1;"/></g><g transform="matrix(1, 0, 0, 1, 375.315186, 160.125397)"><path d="M 0 0 C 0.205 0 0.401 0.005 0.589 0.015 C 0.775 0.023 0.924 0.037 1.036 0.056 L 1.036 1.637 C 0.953 1.656 0.827 1.674 0.658 1.693 C 0.49 1.712 0.337 1.721 0.198 1.721 C 0 1.721 -0.184 1.71 -0.356 1.687 C -0.529 1.662 -0.68 1.619 -0.811 1.553 C -0.941 1.488 -1.044 1.399 -1.119 1.288 C -1.193 1.175 -1.232 1.036 -1.232 0.868 C -1.232 0.541 -1.121 0.315 -0.902 0.189 C -0.684 0.063 -0.381 0 0 0 M -0.167 6.101 C 0.449 6.101 0.96 6.031 1.373 5.892 C 1.781 5.751 2.111 5.551 2.359 5.289 C 2.606 5.028 2.781 4.711 2.883 4.338 C 2.986 3.965 3.036 3.549 3.036 3.092 L 3.036 -1.245 C 2.738 -1.311 2.324 -1.387 1.791 -1.477 C 1.261 -1.565 0.616 -1.609 -0.139 -1.609 C -0.616 -1.609 -1.048 -1.568 -1.433 -1.483 C -1.82 -1.399 -2.155 -1.262 -2.434 -1.071 C -2.715 -0.879 -2.928 -0.629 -3.077 -0.321 C -3.228 -0.014 -3.302 0.364 -3.302 0.811 C -3.302 1.24 -3.216 1.604 -3.042 1.904 C -2.87 2.202 -2.639 2.44 -2.351 2.617 C -2.06 2.794 -1.729 2.922 -1.357 3.001 C -0.984 3.081 -0.596 3.121 -0.196 3.121 C 0.076 3.121 0.316 3.109 0.525 3.086 C 0.736 3.062 0.906 3.031 1.036 2.995 L 1.036 3.19 C 1.036 3.545 0.929 3.829 0.715 4.044 C 0.5 4.258 0.126 4.366 -0.405 4.366 C -0.759 4.366 -1.11 4.34 -1.454 4.289 C -1.799 4.238 -2.099 4.165 -2.351 4.072 L -2.616 5.751 C -2.494 5.789 -2.343 5.829 -2.161 5.87 C -1.979 5.912 -1.781 5.95 -1.567 5.983 C -1.352 6.015 -1.125 6.043 -0.889 6.066 C -0.651 6.089 -0.411 6.101 -0.167 6.101" style="fill: rgb(44, 46, 53); fill-opacity: 1;"/></g></g></svg>