<?xml version="1.0" encoding="utf-8"?>
<svg xmlns="http://www.w3.org/2000/svg" viewBox="124.3355 107.6515 372.2006 135.5573" width="372.201px" height="135.557px" preserveAspectRatio="none"><defs><clipPath id="clippath0" transform=""><path d="M 0 792 L 612 792 L 612 0 L 0 0 Z" style="fill: none; clip-rule: nonzero;"/></clipPath></defs><g id="object-0" transform="matrix(1, 0, 0, -1, 7.105427357601002e-15, 792.0000007376075)"><g><g><g style="clip-path: url(&quot;#clippath0&quot;);"><g transform="translate(247.6286 640.0116)"><path d="M 0 0 C -11.865 11.246 -19.309 6.129 -25.801 -0.212 C -34.483 -8.578 -36.792 -10.258 -39.48 -9.997 C -45.472 -9.417 -50.768 -1.461 -60.026 -10.719 C -60.976 -11.669 -62.731 -13.547 -63.604 -14.558 C -63.652 -14.613 -63.573 -14.687 -63.521 -14.637 C -62.017 -13.207 -58.008 -9.625 -54.904 -8.975 C -49.901 -7.927 -43.632 -14.562 -36.844 -17.284 C -27.811 -20.907 -20.816 -13.303 -14.192 -6.511 C -8.322 -0.492 -2.766 -0.362 -0.323 -0.684 C 0.057 -0.734 0.278 -0.264 0 0" style="fill: rgb(255, 50, 36); fill-opacity: 1;"/></g></g><g style="clip-path: url(&quot;#clippath0&quot;);"><g transform="translate(201.8721 634.0343)"><path d="M 0 0 C 0.018 -0.01 0.035 -0.02 0.053 -0.03 C 0.064 -0.036 0.074 -0.036 0.084 -0.04 C 1.459 -0.704 3.018 -1.253 4.771 -1.577 C 4.893 -1.6 4.937 -1.423 4.82 -1.385 C 2.73 -0.702 -0.885 0.79 -1.613 3.796 C -1.626 3.852 -1.638 3.909 -1.649 3.965 C -1.679 4.114 -1.702 4.266 -1.717 4.422 C -1.723 4.478 -1.73 4.534 -1.734 4.59 C -1.765 5.088 -1.722 5.623 -1.586 6.198 L -1.595 6.231 C -1.043 8.518 1.011 10.863 4.964 14.816 C 7.014 16.866 9.192 18.93 10.984 21.14 C 16.054 27.074 18.736 34.069 8.904 44.445 C 8.64 44.724 8.167 44.505 8.217 44.125 C 8.243 43.928 8.265 43.709 8.282 43.474 C 8.452 41.144 8.058 36.984 4.352 32.404 C 3.78 31.696 3.129 30.979 2.389 30.257 C 1.167 29.065 -0.081 27.861 -1.285 26.635 C -6.361 21.47 -11.124 15.782 -8.93 9.258 C -8.677 8.506 -8.298 7.716 -7.793 6.908 L -7.796 6.905 C -7.796 6.905 -5.294 2.589 0 0" style="fill: rgb(255, 131, 108); fill-opacity: 1;"/></g></g><g style="clip-path: url(&quot;#clippath0&quot;);"><g transform="translate(198.2948 675.6375)"><path d="M 0 0 C 0 -4.811 -3.9 -8.71 -8.71 -8.71 C -13.521 -8.71 -17.421 -4.811 -17.421 0 C -17.421 4.811 -13.521 8.711 -8.71 8.711 C -3.9 8.711 0 4.811 0 0" style="fill: rgb(42, 133, 60); fill-opacity: 1;"/></g></g><g style="clip-path: url(&quot;#clippath0&quot;);"><g transform="translate(131.0089 598.717)"><path d="M 0 0 C 11.865 -11.246 19.309 -6.129 25.801 0.212 C 34.483 8.578 36.792 10.258 39.48 9.997 C 45.472 9.417 50.768 1.461 60.026 10.719 C 60.976 11.669 62.731 13.547 63.604 14.558 C 63.652 14.613 63.573 14.687 63.521 14.637 C 62.017 13.207 58.008 9.625 54.904 8.975 C 49.901 7.927 43.632 14.562 36.844 17.284 C 27.811 20.907 20.816 13.303 14.192 6.511 C 8.322 0.492 2.766 0.362 0.323 0.684 C -0.057 0.734 -0.278 0.264 0 0" style="fill: rgb(42, 133, 60); fill-opacity: 1;"/></g></g><g style="clip-path: url(&quot;#clippath0&quot;);"><g transform="translate(176.7655 604.6943)"><path d="M 0 0 C -0.018 0.01 -0.035 0.02 -0.053 0.03 C -0.064 0.036 -0.074 0.036 -0.084 0.04 C -1.459 0.704 -3.018 1.253 -4.771 1.577 C -4.893 1.6 -4.937 1.423 -4.82 1.385 C -2.73 0.702 0.885 -0.79 1.613 -3.796 C 1.626 -3.852 1.638 -3.909 1.649 -3.965 C 1.679 -4.114 1.702 -4.266 1.717 -4.422 C 1.723 -4.478 1.73 -4.534 1.734 -4.59 C 1.765 -5.088 1.722 -5.623 1.586 -6.198 L 1.595 -6.231 C 1.043 -8.518 -1.011 -10.863 -4.964 -14.816 C -7.014 -16.866 -9.192 -18.93 -10.984 -21.14 C -16.054 -27.074 -18.736 -34.069 -8.904 -44.445 C -8.64 -44.724 -8.167 -44.505 -8.217 -44.124 C -8.243 -43.928 -8.265 -43.709 -8.282 -43.474 C -8.452 -41.144 -8.058 -36.984 -4.352 -32.403 C -3.78 -31.696 -3.129 -30.979 -2.389 -30.257 C -1.167 -29.065 0.081 -27.86 1.285 -26.635 C 6.361 -21.47 11.124 -15.782 8.93 -9.258 C 8.677 -8.506 8.298 -7.716 7.793 -6.908 L 7.796 -6.905 C 7.796 -6.905 5.294 -2.588 0 0" style="fill: rgb(118, 172, 124); fill-opacity: 1;"/></g></g><g style="clip-path: url(&quot;#clippath0&quot;);"><g transform="translate(180.3427 563.0911)"><path d="M 0 0 C 0 4.811 3.9 8.71 8.71 8.71 C 13.521 8.71 17.421 4.811 17.421 0 C 17.421 -4.811 13.521 -8.71 8.71 -8.71 C 3.9 -8.71 0 -4.811 0 0" style="fill: rgb(255, 50, 36); fill-opacity: 1;"/></g></g><g style="clip-path: url(&quot;#clippath0&quot;);"><g transform="translate(209.9661 561.0544)"><path d="M 0 0 C 11.246 11.865 6.129 19.309 -0.212 25.801 C -8.578 34.483 -10.258 36.792 -9.997 39.48 C -9.417 45.472 -1.461 50.768 -10.719 60.026 C -11.669 60.976 -13.547 62.731 -14.558 63.604 C -14.613 63.652 -14.687 63.573 -14.637 63.521 C -13.207 62.017 -9.625 58.008 -8.975 54.904 C -7.927 49.901 -14.562 43.632 -17.284 36.844 C -20.907 27.811 -13.303 20.816 -6.511 14.192 C -0.492 8.322 -0.362 2.766 -0.684 0.323 C -0.734 -0.057 -0.264 -0.278 0 0" style="fill: rgb(39, 155, 214); fill-opacity: 1;"/></g></g><g style="clip-path: url(&quot;#clippath0&quot;);"><g transform="translate(203.9888 606.811)"><path d="M 0 0 C -0.01 -0.018 -0.02 -0.035 -0.03 -0.053 C -0.036 -0.064 -0.036 -0.074 -0.04 -0.084 C -0.704 -1.459 -1.253 -3.018 -1.577 -4.771 C -1.6 -4.893 -1.423 -4.937 -1.385 -4.82 C -0.702 -2.73 0.79 0.885 3.796 1.613 C 3.852 1.626 3.909 1.638 3.965 1.649 C 4.114 1.679 4.266 1.702 4.422 1.717 C 4.478 1.723 4.534 1.73 4.59 1.734 C 5.088 1.765 5.623 1.722 6.198 1.586 L 6.231 1.595 C 8.518 1.043 10.863 -1.011 14.816 -4.964 C 16.866 -7.015 18.93 -9.192 21.14 -10.984 C 27.074 -16.054 34.069 -18.736 44.445 -8.904 C 44.724 -8.64 44.505 -8.167 44.124 -8.217 C 43.928 -8.243 43.709 -8.265 43.474 -8.282 C 41.144 -8.452 36.984 -8.058 32.403 -4.352 C 31.696 -3.78 30.979 -3.13 30.257 -2.389 C 29.065 -1.167 27.86 0.081 26.635 1.285 C 21.47 6.361 15.782 11.124 9.257 8.93 C 8.506 8.677 7.716 8.298 6.908 7.793 L 6.905 7.796 C 6.905 7.796 2.588 5.294 0 0" style="fill: rgb(123, 191, 230); fill-opacity: 1;"/></g></g><g style="clip-path: url(&quot;#clippath0&quot;);"><g transform="translate(245.592 610.3882)"><path d="M 0 0 C -4.811 0 -8.71 3.9 -8.71 8.71 C -8.71 13.521 -4.811 17.421 0 17.421 C 4.811 17.421 8.71 13.521 8.71 8.71 C 8.71 3.9 4.811 0 0 0" style="fill: rgb(255, 168, 70); fill-opacity: 1;"/></g></g><g style="clip-path: url(&quot;#clippath0&quot;);"><g transform="translate(168.6715 677.6742)"><path d="M 0 0 C -11.246 -11.865 -6.129 -19.309 0.212 -25.801 C 8.578 -34.483 10.258 -36.792 9.997 -39.48 C 9.417 -45.472 1.461 -50.768 10.719 -60.026 C 11.669 -60.976 13.547 -62.731 14.558 -63.604 C 14.613 -63.652 14.687 -63.573 14.637 -63.521 C 13.207 -62.017 9.625 -58.008 8.975 -54.904 C 7.927 -49.901 14.562 -43.632 17.284 -36.844 C 20.907 -27.811 13.303 -20.816 6.511 -14.192 C 0.492 -8.322 0.362 -2.766 0.684 -0.323 C 0.734 0.057 0.264 0.278 0 0" style="fill: rgb(255, 168, 70); fill-opacity: 1;"/></g></g><g style="clip-path: url(&quot;#clippath0&quot;);"><g transform="translate(174.6488 631.9176)"><path d="M 0 0 C 0.01 0.018 0.02 0.035 0.03 0.053 C 0.036 0.064 0.036 0.074 0.04 0.084 C 0.704 1.459 1.253 3.018 1.577 4.771 C 1.6 4.893 1.423 4.937 1.385 4.82 C 0.702 2.73 -0.79 -0.885 -3.796 -1.613 C -3.852 -1.626 -3.909 -1.638 -3.965 -1.649 C -4.114 -1.679 -4.266 -1.702 -4.422 -1.717 C -4.478 -1.723 -4.534 -1.73 -4.59 -1.734 C -5.088 -1.765 -5.623 -1.722 -6.198 -1.586 L -6.231 -1.595 C -8.518 -1.043 -10.863 1.011 -14.816 4.964 C -16.866 7.014 -18.93 9.192 -21.14 10.984 C -27.074 16.054 -34.069 18.736 -44.445 8.904 C -44.724 8.64 -44.505 8.167 -44.124 8.217 C -43.928 8.242 -43.709 8.265 -43.474 8.282 C -41.144 8.452 -36.984 8.058 -32.403 4.352 C -31.696 3.78 -30.979 3.129 -30.257 2.389 C -29.065 1.167 -27.86 -0.081 -26.635 -1.285 C -21.47 -6.361 -15.782 -11.124 -9.257 -8.93 C -8.506 -8.677 -7.716 -8.298 -6.908 -7.793 L -6.905 -7.796 C -6.905 -7.796 -2.588 -5.294 0 0" style="fill: rgb(251, 194, 148); fill-opacity: 1;"/></g></g><g style="clip-path: url(&quot;#clippath0&quot;);"><g transform="translate(133.0455 628.3403)"><path d="M 0 0 C 4.811 0 8.71 -3.9 8.71 -8.71 C 8.71 -13.521 4.811 -17.421 0 -17.421 C -4.811 -17.421 -8.71 -13.521 -8.71 -8.71 C -8.71 -3.9 -4.811 0 0 0" style="fill: rgb(39, 155, 214); fill-opacity: 1;"/></g></g><g style="clip-path: url(&quot;#clippath0&quot;);"><g transform="translate(313.0651 606.1797)"><path d="M 0 0 C -11.162 0 -19.665 3.104 -25.51 9.312 C -31.356 15.52 -34.278 24.337 -34.278 35.764 C -34.278 41.443 -33.386 46.513 -31.603 50.971 C -29.82 55.429 -27.377 59.194 -24.272 62.265 C -21.168 65.336 -17.47 67.664 -13.176 69.249 C -8.884 70.835 -4.227 71.627 0.793 71.627 C 3.698 71.627 6.341 71.412 8.718 70.983 C 11.096 70.553 13.176 70.057 14.959 69.497 C 16.743 68.935 18.229 68.358 19.418 67.763 C 20.606 67.169 21.464 66.706 21.993 66.377 L 17.536 53.894 C 15.421 55.016 12.961 55.974 10.155 56.767 C 7.347 57.559 4.161 57.955 0.594 57.955 C -1.783 57.955 -4.111 57.559 -6.39 56.767 C -8.668 55.974 -10.684 54.702 -12.433 52.953 C -14.184 51.202 -15.588 48.94 -16.644 46.166 C -17.701 43.392 -18.229 40.024 -18.229 36.061 C -18.229 32.891 -17.882 29.934 -17.188 27.195 C -16.495 24.453 -15.372 22.092 -13.82 20.111 C -12.269 18.13 -10.238 16.56 -7.727 15.405 C -5.218 14.249 -2.179 13.671 1.387 13.671 C 3.632 13.671 5.647 13.803 7.43 14.068 C 9.214 14.331 10.799 14.645 12.186 15.009 C 13.573 15.371 14.794 15.784 15.851 16.247 C 16.907 16.709 17.865 17.139 18.724 17.535 L 22.984 5.151 C 20.804 3.829 17.734 2.641 13.771 1.585 C 9.808 0.529 5.217 0 0 0" style="fill: rgb(2, 4, 7); fill-opacity: 1;"/></g></g><g style="clip-path: url(&quot;#clippath0&quot;);"><g transform="translate(363.3986 663.8381)"><path d="M 0 0 C -1.124 0 -2.229 -0.034 -3.319 -0.099 C -4.408 -0.166 -5.349 -0.232 -6.142 -0.297 L -6.142 -20.111 L -1.288 -20.111 C 4.062 -20.111 8.09 -19.385 10.799 -17.932 C 13.506 -16.48 14.861 -13.771 14.861 -9.808 C 14.861 -7.893 14.514 -6.308 13.82 -5.053 C 13.127 -3.799 12.136 -2.791 10.848 -2.031 C 9.56 -1.273 7.991 -0.743 6.143 -0.446 C 4.293 -0.149 2.245 0 0 0 M -0.99 13.176 C 9.246 13.176 17.105 11.376 22.588 7.777 C 28.07 4.176 30.811 -1.718 30.811 -9.907 C 30.811 -18.164 28.037 -24.124 22.489 -27.789 C 16.941 -31.455 9.016 -33.287 -1.288 -33.287 L -6.142 -33.287 L -6.142 -56.272 L -21.597 -56.272 L -21.597 11.393 C -18.229 12.052 -14.662 12.515 -10.897 12.78 C -7.133 13.043 -3.831 13.176 -0.99 13.176" style="fill: rgb(2, 4, 7); fill-opacity: 1;"/></g></g></g></g><g><g><path d="M 400.928 676.222 L 416.383 676.222 L 416.383 607.567 L 400.928 607.567 Z" style="fill: rgb(2, 4, 7); fill-opacity: 1;"/></g><g transform="matrix(1, 0, 0, 1, 467.547486, 607.566529)"><path d="M 0 0 C -1.933 3.823 -4.049 7.696 -6.348 11.619 C -8.647 15.542 -11.287 18.859 -14.266 21.568 C -15.191 20.546 -16.361 19.127 -17.778 17.309 C -19.196 15.492 -20.613 13.56 -22.031 11.517 C -23.448 9.474 -24.777 7.354 -26.012 5.162 C -27.247 2.969 -28.167 1.248 -28.769 0 L -46.403 0 C -43.515 5.361 -40.105 10.896 -36.171 16.605 C -32.24 22.314 -27.853 28.374 -23.011 34.789 L -45.412 68.655 L -26.688 68.655 L -13.607 48.775 L -0.239 68.655 L 17.397 68.655 L -4.884 35.52 C 0.958 28.199 5.769 21.489 9.546 15.388 C 13.323 9.288 16.305 4.158 18.487 0 Z" style="fill: rgb(2, 4, 7); fill-opacity: 1;"/></g><g transform="matrix(1, 0, 0, 1, 290.853699, 576.900818)"><path d="M 0 0 C -1.067 0 -2.025 0.164 -2.873 0.493 C -3.72 0.82 -4.439 1.303 -5.027 1.938 C -5.615 2.575 -6.067 3.351 -6.381 4.267 C -6.696 5.184 -6.853 6.237 -6.853 7.427 C -6.853 8.617 -6.672 9.67 -6.309 10.587 C -5.947 11.503 -5.451 12.279 -4.822 12.916 C -4.192 13.552 -3.454 14.034 -2.606 14.362 C -1.758 14.69 -0.848 14.855 0.123 14.855 C 0.711 14.855 1.245 14.81 1.723 14.721 C 2.202 14.632 2.619 14.533 2.975 14.424 C 3.331 14.314 3.625 14.198 3.857 14.075 C 4.09 13.952 4.254 13.863 4.35 13.808 L 3.591 11.695 C 3.262 11.9 2.794 12.095 2.185 12.279 C 1.576 12.464 0.916 12.557 0.205 12.557 C -0.41 12.557 -0.985 12.45 -1.518 12.239 C -2.052 12.027 -2.513 11.708 -2.903 11.285 C -3.293 10.861 -3.598 10.327 -3.816 9.684 C -4.035 9.041 -4.145 8.295 -4.145 7.448 C -4.145 6.696 -4.059 6.004 -3.888 5.376 C -3.717 4.746 -3.454 4.202 -3.098 3.744 C -2.742 3.286 -2.291 2.93 -1.744 2.678 C -1.197 2.424 -0.54 2.297 0.226 2.297 C 1.142 2.297 1.888 2.39 2.462 2.575 C 3.036 2.76 3.481 2.934 3.796 3.098 L 4.493 0.984 C 4.329 0.875 4.107 0.766 3.827 0.657 C 3.546 0.547 3.214 0.441 2.832 0.338 C 2.448 0.236 2.017 0.154 1.539 0.092 C 1.06 0.03 0.547 0 0 0" style="fill: rgb(44, 46, 53); fill-opacity: 1;"/></g><g transform="matrix(1, 0, 0, 1, 303.841614, 583.630311)"><path d="M 0 0 C 0 0.342 -0.048 0.667 -0.144 0.974 C -0.24 1.283 -0.38 1.549 -0.564 1.774 C -0.749 2.001 -0.975 2.178 -1.241 2.308 C -1.508 2.438 -1.826 2.503 -2.196 2.503 C -2.578 2.503 -2.914 2.431 -3.201 2.288 C -3.488 2.145 -3.731 1.956 -3.929 1.724 C -4.128 1.491 -4.282 1.224 -4.391 0.924 C -4.5 0.623 -4.576 0.314 -4.617 0 Z M -7.202 -1.108 C -7.202 -0.164 -7.062 0.663 -6.781 1.375 C -6.501 2.085 -6.128 2.678 -5.663 3.149 C -5.198 3.622 -4.665 3.977 -4.063 4.216 C -3.461 4.456 -2.846 4.576 -2.216 4.576 C -0.739 4.576 0.414 4.117 1.241 3.201 C 2.069 2.284 2.483 0.916 2.483 -0.902 C 2.483 -1.039 2.479 -1.193 2.472 -1.365 C 2.465 -1.535 2.455 -1.689 2.442 -1.826 L -4.637 -1.826 C -4.569 -2.688 -4.265 -3.355 -3.724 -3.826 C -3.184 -4.298 -2.401 -4.534 -1.375 -4.534 C -0.773 -4.534 -0.223 -4.48 0.277 -4.37 C 0.776 -4.26 1.169 -4.145 1.457 -4.021 L 1.785 -6.053 C 1.648 -6.121 1.46 -6.193 1.221 -6.268 C 0.981 -6.343 0.708 -6.412 0.4 -6.473 C 0.092 -6.535 -0.24 -6.586 -0.595 -6.627 C -0.951 -6.668 -1.313 -6.689 -1.683 -6.689 C -2.626 -6.689 -3.447 -6.548 -4.145 -6.268 C -4.842 -5.988 -5.417 -5.598 -5.868 -5.099 C -6.32 -4.599 -6.655 -4.011 -6.874 -3.334 C -7.092 -2.657 -7.202 -1.915 -7.202 -1.108" style="fill: rgb(44, 46, 53); fill-opacity: 1;"/></g><g transform="matrix(1, 0, 0, 1, 308.950012, 587.589905)"><path d="M 0 0 C 0.479 0.137 1.101 0.267 1.867 0.39 C 2.633 0.513 3.481 0.575 4.411 0.575 C 5.287 0.575 6.018 0.455 6.607 0.215 C 7.195 -0.024 7.664 -0.358 8.012 -0.789 C 8.361 -1.22 8.607 -1.741 8.751 -2.349 C 8.894 -2.957 8.966 -3.624 8.966 -4.349 L 8.966 -10.382 L 6.484 -10.382 L 6.484 -4.74 C 6.484 -4.165 6.446 -3.676 6.371 -3.272 C 6.296 -2.869 6.172 -2.541 6.002 -2.287 C 5.83 -2.035 5.598 -1.85 5.304 -1.733 C 5.009 -1.617 4.65 -1.559 4.227 -1.559 C 3.912 -1.559 3.584 -1.579 3.242 -1.621 C 2.9 -1.661 2.647 -1.696 2.483 -1.723 L 2.483 -10.382 L 0 -10.382 Z" style="fill: rgb(44, 46, 53); fill-opacity: 1;"/></g><g transform="matrix(1, 0, 0, 1, 320.829712, 590.770386)"><path d="M 0 0 L 2.483 0.411 L 2.483 -2.832 L 6.299 -2.832 L 6.299 -4.904 L 2.483 -4.904 L 2.483 -9.274 C 2.483 -10.136 2.619 -10.751 2.893 -11.12 C 3.167 -11.49 3.632 -11.674 4.288 -11.674 C 4.74 -11.674 5.14 -11.627 5.489 -11.531 C 5.837 -11.435 6.114 -11.346 6.319 -11.264 L 6.73 -13.233 C 6.443 -13.357 6.066 -13.483 5.601 -13.614 C 5.136 -13.743 4.589 -13.808 3.96 -13.808 C 3.194 -13.808 2.554 -13.706 2.042 -13.5 C 1.529 -13.295 1.121 -12.998 0.821 -12.608 C 0.52 -12.219 0.308 -11.746 0.185 -11.192 C 0.062 -10.638 0 -10.005 0 -9.294 Z" style="fill: rgb(44, 46, 53); fill-opacity: 1;"/></g><g transform="matrix(1, 0, 0, 1, 335.643586, 585.703126)"><path d="M 0 0 C -0.205 0.068 -0.489 0.139 -0.851 0.215 C -1.214 0.29 -1.635 0.328 -2.113 0.328 C -2.387 0.328 -2.677 0.3 -2.985 0.246 C -3.293 0.191 -3.508 0.144 -3.632 0.102 L -3.632 -8.495 L -6.114 -8.495 L -6.114 1.723 C -5.636 1.9 -5.037 2.068 -4.319 2.226 C -3.601 2.383 -2.804 2.461 -1.929 2.461 C -1.764 2.461 -1.573 2.451 -1.354 2.431 C -1.136 2.411 -0.916 2.383 -0.698 2.349 C -0.479 2.314 -0.267 2.274 -0.062 2.226 C 0.144 2.177 0.308 2.134 0.431 2.092 Z" style="fill: rgb(44, 46, 53); fill-opacity: 1;"/></g><g transform="matrix(1, 0, 0, 1, 344.95871, 582.584229)"><path d="M 0 0 C 0 1.066 -0.229 1.911 -0.687 2.534 C -1.146 3.156 -1.785 3.467 -2.606 3.467 C -3.426 3.467 -4.066 3.156 -4.524 2.534 C -4.982 1.911 -5.211 1.066 -5.211 0 C -5.211 -1.081 -4.982 -1.936 -4.524 -2.565 C -4.066 -3.194 -3.426 -3.508 -2.606 -3.508 C -1.785 -3.508 -1.146 -3.194 -0.687 -2.565 C -0.229 -1.936 0 -1.081 0 0 M 2.544 0 C 2.544 -0.848 2.421 -1.621 2.175 -2.319 C 1.929 -3.017 1.58 -3.611 1.128 -4.104 C 0.677 -4.596 0.134 -4.979 -0.503 -5.252 C -1.139 -5.526 -1.84 -5.663 -2.606 -5.663 C -3.372 -5.663 -4.069 -5.526 -4.699 -5.252 C -5.328 -4.979 -5.868 -4.596 -6.32 -4.104 C -6.771 -3.611 -7.123 -3.017 -7.376 -2.319 C -7.629 -1.621 -7.756 -0.848 -7.756 0 C -7.756 0.848 -7.629 1.617 -7.376 2.308 C -7.123 2.999 -6.768 3.59 -6.309 4.083 C -5.851 4.576 -5.307 4.955 -4.678 5.221 C -4.049 5.488 -3.358 5.622 -2.606 5.622 C -1.854 5.622 -1.159 5.488 -0.523 5.221 C 0.113 4.955 0.657 4.576 1.108 4.083 C 1.559 3.59 1.911 2.999 2.164 2.308 C 2.418 1.617 2.544 0.848 2.544 0" style="fill: rgb(44, 46, 53); fill-opacity: 1;"/></g><g transform="matrix(1, 0, 0, 1, 356.796601, 582.604493)"><path d="M 0 0 C 0 -1.094 0.259 -1.953 0.78 -2.575 C 1.299 -3.197 2.017 -3.508 2.934 -3.508 C 3.331 -3.508 3.669 -3.492 3.949 -3.457 C 4.23 -3.423 4.459 -3.385 4.637 -3.344 L 4.637 2.811 C 4.418 2.962 4.127 3.101 3.765 3.231 C 3.402 3.361 3.016 3.426 2.606 3.426 C 1.703 3.426 1.043 3.119 0.626 2.503 C 0.208 1.888 0 1.053 0 0 M 7.119 -5.067 C 6.627 -5.219 6.008 -5.355 5.263 -5.478 C 4.517 -5.601 3.734 -5.663 2.914 -5.663 C 2.065 -5.663 1.306 -5.533 0.636 -5.273 C -0.034 -5.013 -0.605 -4.641 -1.077 -4.155 C -1.549 -3.67 -1.912 -3.081 -2.165 -2.391 C -2.418 -1.7 -2.544 -0.924 -2.544 -0.062 C -2.544 0.787 -2.439 1.556 -2.226 2.247 C -2.014 2.937 -1.703 3.529 -1.293 4.021 C -0.882 4.514 -0.383 4.893 0.205 5.16 C 0.793 5.427 1.47 5.56 2.236 5.56 C 2.756 5.56 3.214 5.498 3.611 5.376 C 4.008 5.252 4.35 5.116 4.637 4.965 L 4.637 10.115 L 7.119 10.525 Z" style="fill: rgb(44, 46, 53); fill-opacity: 1;"/></g><g transform="matrix(1, 0, 0, 1, 373.682801, 583.630311)"><path d="M 0 0 C 0 0.342 -0.048 0.667 -0.144 0.974 C -0.24 1.283 -0.38 1.549 -0.564 1.774 C -0.749 2.001 -0.975 2.178 -1.241 2.308 C -1.508 2.438 -1.826 2.503 -2.196 2.503 C -2.578 2.503 -2.914 2.431 -3.201 2.288 C -3.488 2.145 -3.731 1.956 -3.929 1.724 C -4.128 1.491 -4.282 1.224 -4.391 0.924 C -4.5 0.623 -4.576 0.314 -4.617 0 Z M -7.202 -1.108 C -7.202 -0.164 -7.062 0.663 -6.781 1.375 C -6.501 2.085 -6.128 2.678 -5.663 3.149 C -5.198 3.622 -4.665 3.977 -4.063 4.216 C -3.461 4.456 -2.845 4.576 -2.216 4.576 C -0.739 4.576 0.414 4.117 1.241 3.201 C 2.069 2.284 2.483 0.916 2.483 -0.902 C 2.483 -1.039 2.479 -1.193 2.472 -1.365 C 2.465 -1.535 2.455 -1.689 2.442 -1.826 L -4.637 -1.826 C -4.569 -2.688 -4.265 -3.355 -3.724 -3.826 C -3.184 -4.298 -2.401 -4.534 -1.375 -4.534 C -0.773 -4.534 -0.223 -4.48 0.277 -4.37 C 0.776 -4.26 1.169 -4.145 1.457 -4.021 L 1.785 -6.053 C 1.648 -6.121 1.46 -6.193 1.221 -6.268 C 0.981 -6.343 0.708 -6.412 0.4 -6.473 C 0.092 -6.535 -0.24 -6.586 -0.595 -6.627 C -0.951 -6.668 -1.313 -6.689 -1.683 -6.689 C -2.626 -6.689 -3.447 -6.548 -4.145 -6.268 C -4.842 -5.988 -5.417 -5.598 -5.868 -5.099 C -6.32 -4.599 -6.655 -4.011 -6.874 -3.334 C -7.092 -2.657 -7.202 -1.915 -7.202 -1.108" style="fill: rgb(44, 46, 53); fill-opacity: 1;"/></g><g transform="matrix(1, 0, 0, 1, 387.901001, 589.333985)"><path d="M 0 0 C -0.657 0 -1.197 -0.02 -1.621 -0.061 L -1.621 -4.904 L -0.369 -4.904 C 0.875 -4.904 1.833 -4.729 2.503 -4.38 C 3.173 -4.031 3.508 -3.372 3.508 -2.401 C 3.508 -1.935 3.42 -1.546 3.242 -1.231 C 3.064 -0.916 2.818 -0.67 2.503 -0.492 C 2.189 -0.314 1.816 -0.188 1.385 -0.112 C 0.954 -0.037 0.493 0 0 0 M -0.185 2.237 C 1.881 2.237 3.464 1.861 4.565 1.109 C 5.666 0.356 6.217 -0.82 6.217 -2.421 C 6.217 -3.255 6.07 -3.97 5.776 -4.565 C 5.481 -5.16 5.054 -5.645 4.493 -6.021 C 3.933 -6.398 3.249 -6.675 2.442 -6.853 C 1.635 -7.03 0.711 -7.119 -0.328 -7.119 L -1.621 -7.119 L -1.621 -12.126 L -4.206 -12.126 L -4.206 1.888 C -3.604 2.025 -2.938 2.117 -2.205 2.165 C -1.474 2.213 -0.8 2.237 -0.185 2.237" style="fill: rgb(44, 46, 53); fill-opacity: 1;"/></g><g transform="matrix(1, 0, 0, 1, 399.041687, 578.992981)"><path d="M 0 0 C 0.657 0 1.135 0.079 1.436 0.237 C 1.737 0.394 1.888 0.663 1.888 1.047 C 1.888 1.403 1.727 1.697 1.406 1.929 C 1.084 2.161 0.554 2.414 -0.185 2.688 C -0.636 2.853 -1.05 3.027 -1.426 3.212 C -1.802 3.396 -2.127 3.612 -2.401 3.857 C -2.674 4.104 -2.89 4.402 -3.047 4.751 C -3.204 5.099 -3.283 5.526 -3.283 6.032 C -3.283 7.018 -2.921 7.793 -2.195 8.361 C -1.47 8.929 -0.485 9.213 0.759 9.213 C 1.388 9.213 1.99 9.155 2.565 9.039 C 3.139 8.922 3.57 8.809 3.857 8.7 L 3.406 6.689 C 3.132 6.812 2.783 6.926 2.36 7.028 C 1.935 7.13 1.443 7.182 0.882 7.182 C 0.376 7.182 -0.034 7.096 -0.349 6.926 C -0.664 6.754 -0.82 6.49 -0.82 6.135 C -0.82 5.957 -0.79 5.8 -0.728 5.663 C -0.667 5.526 -0.561 5.399 -0.41 5.284 C -0.26 5.167 -0.062 5.051 0.185 4.935 C 0.431 4.818 0.732 4.699 1.088 4.576 C 1.676 4.357 2.175 4.141 2.585 3.929 C 2.995 3.717 3.334 3.478 3.601 3.212 C 3.868 2.945 4.063 2.64 4.186 2.298 C 4.309 1.956 4.37 1.546 4.37 1.067 C 4.37 0.041 3.991 -0.735 3.232 -1.262 C 2.472 -1.788 1.388 -2.052 -0.02 -2.052 C -0.964 -2.052 -1.723 -1.972 -2.298 -1.815 C -2.873 -1.659 -3.276 -1.532 -3.508 -1.436 L -3.077 0.636 C -2.708 0.486 -2.267 0.342 -1.754 0.205 C -1.241 0.068 -0.657 0 0 0" style="fill: rgb(44, 46, 53); fill-opacity: 1;"/></g><g><path d="M 408.233 577.208 L 405.75 577.208 L 405.75 587.939 L 408.233 587.939 Z M 408.5 591.078 C 408.5 590.613 408.349 590.244 408.048 589.97 C 407.747 589.696 407.392 589.56 406.982 589.56 C 406.557 589.56 406.195 589.696 405.894 589.97 C 405.593 590.244 405.443 590.613 405.443 591.078 C 405.443 591.557 405.593 591.933 405.894 592.207 C 406.195 592.48 406.557 592.617 406.982 592.617 C 407.392 592.617 407.747 592.48 408.048 592.207 C 408.349 591.933 408.5 591.557 408.5 591.078" style="fill: rgb(44, 46, 53); fill-opacity: 1;"/></g><g transform="matrix(1, 0, 0, 1, 410.797608, 582.562989)"><path d="M 0 0 C 0 0.793 0.123 1.535 0.369 2.227 C 0.616 2.917 0.967 3.516 1.426 4.022 C 1.884 4.527 2.442 4.925 3.098 5.212 C 3.755 5.499 4.493 5.643 5.314 5.643 C 6.326 5.643 7.284 5.458 8.187 5.089 L 7.653 3.057 C 7.366 3.181 7.041 3.284 6.678 3.366 C 6.316 3.448 5.93 3.488 5.519 3.488 C 4.548 3.488 3.809 3.184 3.303 2.576 C 2.797 1.966 2.544 1.109 2.544 0 C 2.544 -1.066 2.783 -1.911 3.262 -2.533 C 3.741 -3.156 4.548 -3.467 5.683 -3.467 C 6.107 -3.467 6.525 -3.426 6.935 -3.344 C 7.345 -3.262 7.701 -3.159 8.002 -3.036 L 8.351 -5.088 C 8.077 -5.225 7.663 -5.348 7.109 -5.457 C 6.555 -5.567 5.984 -5.622 5.396 -5.622 C 4.48 -5.622 3.683 -5.481 3.006 -5.201 C 2.329 -4.92 1.768 -4.531 1.323 -4.031 C 0.879 -3.532 0.547 -2.937 0.328 -2.246 C 0.109 -1.556 0 -0.807 0 0" style="fill: rgb(44, 46, 53); fill-opacity: 1;"/></g><g transform="matrix(1, 0, 0, 1, 428.011689, 582.584229)"><path d="M 0 0 C 0 1.066 -0.229 1.911 -0.687 2.534 C -1.146 3.156 -1.785 3.467 -2.606 3.467 C -3.426 3.467 -4.066 3.156 -4.524 2.534 C -4.982 1.911 -5.211 1.066 -5.211 0 C -5.211 -1.081 -4.982 -1.936 -4.524 -2.565 C -4.066 -3.194 -3.426 -3.508 -2.606 -3.508 C -1.785 -3.508 -1.146 -3.194 -0.687 -2.565 C -0.229 -1.936 0 -1.081 0 0 M 2.544 0 C 2.544 -0.848 2.421 -1.621 2.175 -2.319 C 1.929 -3.017 1.58 -3.611 1.128 -4.104 C 0.677 -4.596 0.134 -4.979 -0.503 -5.252 C -1.139 -5.526 -1.84 -5.663 -2.606 -5.663 C -3.372 -5.663 -4.069 -5.526 -4.699 -5.252 C -5.328 -4.979 -5.868 -4.596 -6.32 -4.104 C -6.771 -3.611 -7.123 -3.017 -7.376 -2.319 C -7.629 -1.621 -7.756 -0.848 -7.756 0 C -7.756 0.848 -7.629 1.617 -7.376 2.308 C -7.123 2.999 -6.768 3.59 -6.309 4.083 C -5.851 4.576 -5.307 4.955 -4.678 5.221 C -4.049 5.488 -3.358 5.622 -2.606 5.622 C -1.854 5.622 -1.159 5.488 -0.523 5.221 C 0.113 4.955 0.657 4.576 1.108 4.083 C 1.559 3.59 1.911 2.999 2.164 2.308 C 2.418 1.617 2.544 0.848 2.544 0" style="fill: rgb(44, 46, 53); fill-opacity: 1;"/></g><g transform="matrix(1, 0, 0, 1, 436.854889, 577.003113)"><path d="M 0 0 C -0.739 0.013 -1.351 0.096 -1.837 0.247 C -2.322 0.397 -2.708 0.612 -2.995 0.892 C -3.283 1.173 -3.485 1.522 -3.601 1.939 C -3.717 2.356 -3.775 2.832 -3.775 3.365 L -3.775 15.717 L -1.293 16.127 L -1.293 3.837 C -1.293 3.536 -1.269 3.283 -1.221 3.077 C -1.173 2.873 -1.088 2.698 -0.965 2.554 C -0.841 2.411 -0.674 2.302 -0.462 2.227 C -0.25 2.151 0.02 2.093 0.349 2.052 Z" style="fill: rgb(44, 46, 53); fill-opacity: 1;"/></g><g transform="matrix(1, 0, 0, 1, 446.375, 582.584229)"><path d="M 0 0 C 0 1.066 -0.229 1.911 -0.687 2.534 C -1.146 3.156 -1.785 3.467 -2.606 3.467 C -3.426 3.467 -4.066 3.156 -4.524 2.534 C -4.982 1.911 -5.211 1.066 -5.211 0 C -5.211 -1.081 -4.982 -1.936 -4.524 -2.565 C -4.066 -3.194 -3.426 -3.508 -2.606 -3.508 C -1.785 -3.508 -1.146 -3.194 -0.687 -2.565 C -0.229 -1.936 0 -1.081 0 0 M 2.544 0 C 2.544 -0.848 2.421 -1.621 2.175 -2.319 C 1.929 -3.017 1.58 -3.611 1.128 -4.104 C 0.677 -4.596 0.134 -4.979 -0.503 -5.252 C -1.139 -5.526 -1.84 -5.663 -2.606 -5.663 C -3.372 -5.663 -4.069 -5.526 -4.699 -5.252 C -5.328 -4.979 -5.868 -4.596 -6.32 -4.104 C -6.771 -3.611 -7.123 -3.017 -7.376 -2.319 C -7.629 -1.621 -7.756 -0.848 -7.756 0 C -7.756 0.848 -7.629 1.617 -7.376 2.308 C -7.123 2.999 -6.768 3.59 -6.309 4.083 C -5.851 4.576 -5.307 4.955 -4.678 5.221 C -4.049 5.488 -3.358 5.622 -2.606 5.622 C -1.854 5.622 -1.159 5.488 -0.523 5.221 C 0.113 4.955 0.657 4.576 1.108 4.083 C 1.559 3.59 1.911 2.999 2.164 2.308 C 2.418 1.617 2.544 0.848 2.544 0" style="fill: rgb(44, 46, 53); fill-opacity: 1;"/></g><g transform="matrix(1, 0, 0, 1, 453.432709, 582.850281)"><path d="M 0 0 C 0 -1.053 0.229 -1.823 0.687 -2.308 C 1.145 -2.794 1.737 -3.036 2.462 -3.036 C 2.859 -3.036 3.232 -2.982 3.58 -2.872 C 3.929 -2.763 4.213 -2.633 4.432 -2.483 L 4.432 3.078 C 4.254 3.119 4.035 3.157 3.775 3.191 C 3.515 3.224 3.187 3.242 2.79 3.242 C 1.888 3.242 1.197 2.945 0.718 2.35 C 0.239 1.754 0 0.972 0 0 M 6.915 -4.554 C 6.915 -6.264 6.48 -7.516 5.612 -8.31 C 4.743 -9.102 3.413 -9.499 1.621 -9.499 C 0.964 -9.499 0.325 -9.444 -0.297 -9.335 C -0.92 -9.226 -1.484 -9.082 -1.99 -8.904 L -1.539 -6.791 C -1.115 -6.969 -0.633 -7.112 -0.092 -7.222 C 0.448 -7.331 1.033 -7.386 1.662 -7.386 C 2.66 -7.386 3.372 -7.181 3.796 -6.77 C 4.219 -6.36 4.432 -5.751 4.432 -4.944 L 4.432 -4.534 C 4.186 -4.657 3.86 -4.78 3.457 -4.903 C 3.053 -5.027 2.592 -5.088 2.072 -5.088 C 1.388 -5.088 0.762 -4.979 0.195 -4.76 C -0.373 -4.541 -0.858 -4.22 -1.262 -3.796 C -1.665 -3.371 -1.98 -2.842 -2.206 -2.205 C -2.431 -1.569 -2.544 -0.834 -2.544 0 C -2.544 0.78 -2.425 1.498 -2.185 2.155 C -1.946 2.811 -1.597 3.372 -1.139 3.837 C -0.681 4.302 -0.123 4.664 0.533 4.925 C 1.19 5.184 1.935 5.314 2.77 5.314 C 3.577 5.314 4.343 5.252 5.068 5.13 C 5.793 5.007 6.408 4.876 6.915 4.74 Z" style="fill: rgb(44, 46, 53); fill-opacity: 1;"/></g><g><path d="M 466.01 577.208 L 463.527 577.208 L 463.527 587.939 L 466.01 587.939 Z M 467.713 592.329 L 464.369 589.088 L 463.137 590.196 L 466.154 593.786 Z" style="fill: rgb(44, 46, 53); fill-opacity: 1;"/></g><g transform="matrix(1, 0, 0, 1, 472.944794, 578.952515)"><path d="M 0 0 C 0.766 0 1.347 0.041 1.744 0.123 L 1.744 2.872 C 1.607 2.914 1.409 2.954 1.149 2.995 C 0.889 3.037 0.602 3.057 0.287 3.057 C 0.014 3.057 -0.264 3.037 -0.544 2.995 C -0.824 2.954 -1.077 2.879 -1.303 2.77 C -1.529 2.66 -1.71 2.506 -1.847 2.308 C -1.984 2.11 -2.052 1.86 -2.052 1.559 C -2.052 0.971 -1.867 0.564 -1.498 0.339 C -1.128 0.112 -0.63 0 0 0 M -0.205 9.253 C 0.616 9.253 1.306 9.15 1.867 8.946 C 2.428 8.741 2.875 8.453 3.211 8.084 C 3.546 7.715 3.786 7.266 3.929 6.74 C 4.073 6.213 4.145 5.635 4.145 5.007 L 4.145 -1.498 C 3.761 -1.58 3.184 -1.679 2.411 -1.796 C 1.638 -1.911 0.766 -1.97 -0.205 -1.97 C -0.848 -1.97 -1.436 -1.908 -1.97 -1.785 C -2.503 -1.662 -2.958 -1.464 -3.334 -1.19 C -3.71 -0.917 -4.004 -0.561 -4.216 -0.123 C -4.429 0.314 -4.534 0.854 -4.534 1.497 C -4.534 2.113 -4.415 2.633 -4.176 3.057 C -3.936 3.48 -3.611 3.826 -3.201 4.093 C -2.791 4.36 -2.315 4.551 -1.775 4.668 C -1.235 4.783 -0.671 4.842 -0.082 4.842 C 0.191 4.842 0.479 4.825 0.78 4.791 C 1.08 4.756 1.402 4.698 1.744 4.616 L 1.744 5.027 C 1.744 5.314 1.71 5.587 1.641 5.847 C 1.573 6.107 1.453 6.337 1.282 6.535 C 1.111 6.733 0.886 6.887 0.605 6.996 C 0.325 7.105 -0.027 7.16 -0.451 7.16 C -1.026 7.16 -1.553 7.12 -2.031 7.037 C -2.51 6.955 -2.9 6.86 -3.201 6.751 L -3.508 8.761 C -3.194 8.871 -2.736 8.98 -2.134 9.09 C -1.532 9.199 -0.889 9.253 -0.205 9.253" style="fill: rgb(44, 46, 53); fill-opacity: 1;"/></g><g><path d="M 284.534 566.806 L 287.119 566.806 L 287.119 552.587 L 284.534 552.587 Z" style="fill: rgb(44, 46, 53); fill-opacity: 1;"/></g><g transform="matrix(1, 0, 0, 1, 290.4021, 562.968628)"><path d="M 0 0 C 0.479 0.137 1.101 0.267 1.867 0.39 C 2.633 0.513 3.481 0.575 4.411 0.575 C 5.287 0.575 6.018 0.455 6.607 0.216 C 7.195 -0.024 7.664 -0.358 8.012 -0.789 C 8.361 -1.22 8.607 -1.741 8.751 -2.349 C 8.894 -2.957 8.966 -3.624 8.966 -4.349 L 8.966 -10.382 L 6.484 -10.382 L 6.484 -4.74 C 6.484 -4.165 6.446 -3.676 6.371 -3.272 C 6.296 -2.869 6.172 -2.541 6.002 -2.287 C 5.83 -2.035 5.598 -1.85 5.304 -1.733 C 5.01 -1.617 4.65 -1.559 4.227 -1.559 C 3.912 -1.559 3.584 -1.579 3.242 -1.621 C 2.9 -1.661 2.647 -1.696 2.483 -1.723 L 2.483 -10.382 L 0 -10.382 Z" style="fill: rgb(44, 46, 53); fill-opacity: 1;"/></g><g transform="matrix(1, 0, 0, 1, 306.774994, 568.508423)"><path d="M 0 0 C 0.575 0 1.08 -0.051 1.518 -0.154 C 1.956 -0.256 2.284 -0.348 2.503 -0.43 L 2.031 -2.483 C 1.799 -2.373 1.529 -2.284 1.221 -2.216 C 0.913 -2.147 0.581 -2.113 0.226 -2.113 C -0.171 -2.113 -0.506 -2.172 -0.779 -2.287 C -1.053 -2.404 -1.272 -2.565 -1.436 -2.77 C -1.6 -2.974 -1.717 -3.224 -1.785 -3.518 C -1.853 -3.813 -1.888 -4.13 -1.888 -4.472 L -1.888 -5.191 L 2.011 -5.191 L 2.011 -7.263 L -1.888 -7.263 L -1.888 -15.921 L -4.37 -15.921 L -4.37 -4.431 C -4.37 -3.05 -4.008 -1.966 -3.283 -1.18 C -2.558 -0.393 -1.464 0 0 0" style="fill: rgb(44, 46, 53); fill-opacity: 1;"/></g><g transform="matrix(1, 0, 0, 1, 314.387085, 554.331177)"><path d="M 0 0 C 0.766 0 1.347 0.041 1.744 0.123 L 1.744 2.872 C 1.607 2.914 1.409 2.954 1.149 2.995 C 0.889 3.037 0.602 3.057 0.287 3.057 C 0.014 3.057 -0.264 3.037 -0.544 2.995 C -0.824 2.954 -1.077 2.879 -1.303 2.77 C -1.529 2.66 -1.71 2.506 -1.847 2.309 C -1.984 2.11 -2.052 1.86 -2.052 1.559 C -2.052 0.971 -1.867 0.564 -1.498 0.339 C -1.128 0.112 -0.63 0 0 0 M -0.205 9.253 C 0.616 9.253 1.306 9.15 1.867 8.946 C 2.428 8.741 2.875 8.453 3.211 8.084 C 3.546 7.715 3.786 7.266 3.929 6.74 C 4.073 6.213 4.145 5.635 4.145 5.007 L 4.145 -1.498 C 3.761 -1.58 3.183 -1.679 2.411 -1.796 C 1.638 -1.911 0.766 -1.97 -0.205 -1.97 C -0.848 -1.97 -1.436 -1.908 -1.97 -1.785 C -2.503 -1.662 -2.958 -1.464 -3.334 -1.19 C -3.71 -0.917 -4.004 -0.561 -4.216 -0.123 C -4.429 0.314 -4.534 0.854 -4.534 1.497 C -4.534 2.113 -4.415 2.633 -4.176 3.057 C -3.936 3.481 -3.611 3.826 -3.201 4.093 C -2.791 4.36 -2.315 4.551 -1.775 4.668 C -1.235 4.784 -0.671 4.842 -0.082 4.842 C 0.191 4.842 0.479 4.825 0.78 4.791 C 1.08 4.756 1.402 4.698 1.744 4.616 L 1.744 5.027 C 1.744 5.314 1.71 5.587 1.641 5.847 C 1.573 6.107 1.453 6.337 1.282 6.535 C 1.111 6.733 0.886 6.887 0.605 6.997 C 0.325 7.106 -0.027 7.16 -0.451 7.16 C -1.026 7.16 -1.553 7.12 -2.031 7.037 C -2.51 6.955 -2.9 6.86 -3.201 6.751 L -3.508 8.761 C -3.194 8.871 -2.736 8.98 -2.134 9.09 C -1.532 9.199 -0.889 9.253 -0.205 9.253" style="fill: rgb(44, 46, 53); fill-opacity: 1;"/></g><g transform="matrix(1, 0, 0, 1, 321.567688, 562.968628)"><path d="M 0 0 C 0.479 0.137 1.101 0.267 1.867 0.39 C 2.633 0.513 3.481 0.575 4.411 0.575 C 5.287 0.575 6.018 0.455 6.607 0.216 C 7.195 -0.024 7.664 -0.358 8.012 -0.789 C 8.361 -1.22 8.607 -1.741 8.751 -2.349 C 8.894 -2.957 8.966 -3.624 8.966 -4.349 L 8.966 -10.382 L 6.484 -10.382 L 6.484 -4.74 C 6.484 -4.165 6.446 -3.676 6.371 -3.272 C 6.296 -2.869 6.172 -2.541 6.002 -2.287 C 5.83 -2.035 5.598 -1.85 5.304 -1.733 C 5.01 -1.617 4.65 -1.559 4.227 -1.559 C 3.912 -1.559 3.584 -1.579 3.242 -1.621 C 2.9 -1.661 2.647 -1.696 2.483 -1.723 L 2.483 -10.382 L 0 -10.382 Z" style="fill: rgb(44, 46, 53); fill-opacity: 1;"/></g><g transform="matrix(1, 0, 0, 1, 333.447388, 566.14917)"><path d="M 0 0 L 2.483 0.411 L 2.483 -2.832 L 6.299 -2.832 L 6.299 -4.903 L 2.483 -4.903 L 2.483 -9.274 C 2.483 -10.136 2.619 -10.751 2.893 -11.12 C 3.167 -11.49 3.632 -11.674 4.288 -11.674 C 4.74 -11.674 5.14 -11.627 5.489 -11.531 C 5.837 -11.435 6.114 -11.346 6.319 -11.264 L 6.73 -13.233 C 6.443 -13.357 6.066 -13.483 5.601 -13.614 C 5.136 -13.743 4.589 -13.808 3.96 -13.808 C 3.194 -13.808 2.554 -13.706 2.041 -13.5 C 1.529 -13.295 1.121 -12.998 0.821 -12.608 C 0.52 -12.219 0.308 -11.746 0.185 -11.192 C 0.062 -10.638 0 -10.005 0 -9.294 Z" style="fill: rgb(44, 46, 53); fill-opacity: 1;"/></g><g transform="matrix(1, 0, 0, 1, 349.061615, 557.963013)"><path d="M 0 0 C 0 1.066 -0.229 1.911 -0.687 2.534 C -1.146 3.156 -1.785 3.467 -2.606 3.467 C -3.426 3.467 -4.066 3.156 -4.524 2.534 C -4.982 1.911 -5.211 1.066 -5.211 0 C -5.211 -1.081 -4.982 -1.936 -4.524 -2.565 C -4.066 -3.194 -3.426 -3.508 -2.606 -3.508 C -1.785 -3.508 -1.146 -3.194 -0.687 -2.565 C -0.229 -1.936 0 -1.081 0 0 M 2.544 0 C 2.544 -0.848 2.421 -1.621 2.175 -2.319 C 1.929 -3.017 1.58 -3.612 1.128 -4.104 C 0.677 -4.596 0.134 -4.98 -0.503 -5.252 C -1.139 -5.526 -1.84 -5.663 -2.606 -5.663 C -3.372 -5.663 -4.069 -5.526 -4.699 -5.252 C -5.328 -4.98 -5.868 -4.596 -6.32 -4.104 C -6.771 -3.612 -7.123 -3.017 -7.376 -2.319 C -7.629 -1.621 -7.756 -0.848 -7.756 0 C -7.756 0.848 -7.629 1.617 -7.376 2.308 C -7.123 2.999 -6.768 3.59 -6.309 4.083 C -5.851 4.576 -5.307 4.955 -4.678 5.221 C -4.049 5.488 -3.358 5.622 -2.606 5.622 C -1.854 5.622 -1.159 5.488 -0.523 5.221 C 0.113 4.955 0.657 4.576 1.108 4.083 C 1.559 3.59 1.911 2.999 2.164 2.308 C 2.418 1.617 2.544 0.848 2.544 0" style="fill: rgb(44, 46, 53); fill-opacity: 1;"/></g><g><path d="M 354.556 559.584 L 360.075 559.584 L 360.075 557.307 L 354.556 557.307 Z" style="fill: rgb(44, 46, 53); fill-opacity: 1;"/></g><g transform="matrix(1, 0, 0, 1, 368.959504, 557.265015)"><path d="M 0 0 C 0 -0.697 -0.075 -1.347 -0.226 -1.949 C -0.376 -2.551 -0.64 -3.077 -1.016 -3.529 C -1.392 -3.98 -1.898 -4.336 -2.534 -4.596 C -3.17 -4.855 -3.974 -4.985 -4.945 -4.985 C -5.848 -4.985 -6.631 -4.859 -7.294 -4.606 C -7.958 -4.353 -8.467 -4.083 -8.823 -3.796 L -7.899 -1.764 C -7.558 -1.997 -7.137 -2.219 -6.637 -2.431 C -6.138 -2.643 -5.629 -2.75 -5.109 -2.75 C -4.234 -2.75 -3.598 -2.531 -3.201 -2.093 C -2.804 -1.655 -2.606 -0.902 -2.606 0.164 L -2.606 9.541 L 0 9.541 Z" style="fill: rgb(44, 46, 53); fill-opacity: 1;"/></g><g transform="matrix(1, 0, 0, 1, 380.941407, 552.915772)"><path d="M 0 0 C -0.479 -0.123 -1.101 -0.25 -1.867 -0.38 C -2.633 -0.51 -3.475 -0.575 -4.391 -0.575 C -5.252 -0.575 -5.974 -0.452 -6.555 -0.205 C -7.137 0.041 -7.602 0.383 -7.951 0.82 C -8.299 1.258 -8.549 1.781 -8.7 2.39 C -8.85 2.998 -8.925 3.666 -8.925 4.391 L -8.925 10.402 L -6.443 10.402 L -6.443 4.78 C -6.443 3.631 -6.275 2.81 -5.94 2.318 C -5.605 1.826 -5.02 1.579 -4.186 1.579 C -3.885 1.579 -3.567 1.593 -3.232 1.621 C -2.897 1.648 -2.647 1.682 -2.483 1.723 L -2.483 10.402 L 0 10.402 Z" style="fill: rgb(44, 46, 53); fill-opacity: 1;"/></g><g transform="matrix(1, 0, 0, 1, 386.866089, 552.587098)"><path d="M 0 0 C -0.687 1.409 -1.391 3.027 -2.112 4.853 C -2.833 6.679 -3.489 8.638 -4.079 10.731 L -1.431 10.731 C -1.281 10.129 -1.105 9.482 -0.906 8.792 C -0.707 8.101 -0.494 7.41 -0.268 6.719 C -0.041 6.029 0.192 5.358 0.433 4.709 C 0.673 4.059 0.897 3.475 1.102 2.955 C 1.308 3.475 1.528 4.059 1.762 4.709 C 1.995 5.358 2.225 6.029 2.452 6.719 C 2.678 7.41 2.895 8.101 3.101 8.792 C 3.306 9.482 3.485 10.129 3.636 10.731 L 6.202 10.731 C 5.611 8.638 4.955 6.679 4.234 4.853 C 3.513 3.027 2.809 1.409 2.123 0 Z" style="fill: rgb(44, 46, 53); fill-opacity: 1;"/></g><g transform="matrix(1, 0, 0, 1, 401.253693, 559.008973)"><path d="M 0 0 C 0 0.342 -0.048 0.667 -0.144 0.974 C -0.24 1.283 -0.38 1.549 -0.564 1.774 C -0.749 2.001 -0.975 2.178 -1.241 2.309 C -1.508 2.438 -1.826 2.503 -2.196 2.503 C -2.578 2.503 -2.914 2.431 -3.201 2.288 C -3.488 2.145 -3.731 1.956 -3.929 1.724 C -4.128 1.491 -4.282 1.224 -4.391 0.924 C -4.5 0.623 -4.576 0.314 -4.617 0 Z M -7.202 -1.108 C -7.202 -0.164 -7.062 0.663 -6.781 1.375 C -6.501 2.085 -6.128 2.678 -5.663 3.149 C -5.198 3.622 -4.665 3.977 -4.063 4.216 C -3.461 4.456 -2.845 4.576 -2.216 4.576 C -0.739 4.576 0.414 4.117 1.241 3.201 C 2.069 2.284 2.483 0.916 2.483 -0.902 C 2.483 -1.039 2.479 -1.193 2.472 -1.365 C 2.465 -1.535 2.455 -1.689 2.442 -1.826 L -4.637 -1.826 C -4.569 -2.688 -4.265 -3.355 -3.724 -3.826 C -3.184 -4.298 -2.401 -4.534 -1.375 -4.534 C -0.773 -4.534 -0.223 -4.48 0.277 -4.37 C 0.776 -4.26 1.169 -4.145 1.457 -4.021 L 1.785 -6.053 C 1.648 -6.121 1.46 -6.193 1.221 -6.268 C 0.981 -6.343 0.708 -6.412 0.4 -6.473 C 0.092 -6.535 -0.24 -6.586 -0.595 -6.627 C -0.951 -6.668 -1.313 -6.689 -1.683 -6.689 C -2.626 -6.689 -3.447 -6.548 -4.145 -6.268 C -4.842 -5.988 -5.417 -5.598 -5.868 -5.099 C -6.32 -4.599 -6.655 -4.011 -6.874 -3.334 C -7.092 -2.657 -7.202 -1.915 -7.202 -1.108" style="fill: rgb(44, 46, 53); fill-opacity: 1;"/></g><g transform="matrix(1, 0, 0, 1, 406.362091, 562.968628)"><path d="M 0 0 C 0.479 0.137 1.101 0.267 1.867 0.39 C 2.633 0.513 3.481 0.575 4.411 0.575 C 5.287 0.575 6.018 0.455 6.607 0.216 C 7.195 -0.024 7.664 -0.358 8.012 -0.789 C 8.361 -1.22 8.607 -1.741 8.751 -2.349 C 8.894 -2.957 8.966 -3.624 8.966 -4.349 L 8.966 -10.382 L 6.484 -10.382 L 6.484 -4.74 C 6.484 -4.165 6.446 -3.676 6.371 -3.272 C 6.296 -2.869 6.172 -2.541 6.002 -2.287 C 5.83 -2.035 5.598 -1.85 5.304 -1.733 C 5.009 -1.617 4.65 -1.559 4.227 -1.559 C 3.912 -1.559 3.584 -1.579 3.242 -1.621 C 2.9 -1.661 2.647 -1.696 2.483 -1.723 L 2.483 -10.382 L 0 -10.382 Z" style="fill: rgb(44, 46, 53); fill-opacity: 1;"/></g><g><path d="M 420.868 552.587 L 418.385 552.587 L 418.385 563.318 L 420.868 563.318 Z M 421.135 566.457 C 421.135 565.992 420.984 565.623 420.683 565.349 C 420.382 565.075 420.027 564.938 419.617 564.938 C 419.192 564.938 418.83 565.075 418.529 565.349 C 418.228 565.623 418.077 565.992 418.077 566.457 C 418.077 566.936 418.228 567.312 418.529 567.586 C 418.83 567.859 419.192 567.995 419.617 567.995 C 420.027 567.995 420.382 567.859 420.683 567.586 C 420.984 567.312 421.135 566.936 421.135 566.457" style="fill: rgb(44, 46, 53); fill-opacity: 1;"/></g><g transform="matrix(1, 0, 0, 1, 427.761811, 552.381775)"><path d="M 0 0 C -0.738 0.014 -1.351 0.096 -1.837 0.247 C -2.322 0.397 -2.708 0.612 -2.995 0.892 C -3.283 1.173 -3.485 1.522 -3.601 1.939 C -3.717 2.356 -3.775 2.832 -3.775 3.365 L -3.775 15.717 L -1.293 16.127 L -1.293 3.837 C -1.293 3.536 -1.269 3.283 -1.221 3.077 C -1.173 2.873 -1.087 2.698 -0.965 2.554 C -0.841 2.411 -0.674 2.302 -0.462 2.227 C -0.25 2.151 0.02 2.093 0.349 2.052 Z" style="fill: rgb(44, 46, 53); fill-opacity: 1;"/></g><g transform="matrix(1, 0, 0, 1, 443.465516, 552.587098)"><path d="M 0 0 C -0.398 0.745 -0.898 1.567 -1.5 2.464 C -2.103 3.361 -2.734 4.226 -3.391 5.06 C -3.663 4.733 -3.959 4.343 -4.279 3.891 C -4.598 3.438 -4.918 2.977 -5.238 2.505 C -5.557 2.034 -5.853 1.578 -6.125 1.138 C -6.397 0.699 -6.615 0.319 -6.779 0 L -9.734 0 C -9.105 1.137 -8.378 2.304 -7.553 3.503 C -6.729 4.7 -5.834 5.955 -4.869 7.265 L -9.529 14.219 L -6.451 14.219 L -3.339 9.551 L -0.213 14.219 L 2.741 14.219 L -1.865 7.34 C -0.801 5.951 0.14 4.636 0.96 3.397 C 1.779 2.156 2.468 1.024 3.028 0 Z" style="fill: rgb(44, 46, 53); fill-opacity: 1;"/></g><g transform="matrix(1, 0, 0, 1, 452.156586, 554.331177)"><path d="M 0 0 C 0.766 0 1.347 0.041 1.744 0.123 L 1.744 2.872 C 1.607 2.914 1.409 2.954 1.149 2.995 C 0.889 3.037 0.602 3.057 0.287 3.057 C 0.014 3.057 -0.264 3.037 -0.544 2.995 C -0.824 2.954 -1.077 2.879 -1.303 2.77 C -1.529 2.66 -1.71 2.506 -1.847 2.309 C -1.984 2.11 -2.052 1.86 -2.052 1.559 C -2.052 0.971 -1.867 0.564 -1.498 0.339 C -1.128 0.112 -0.63 0 0 0 M -0.205 9.253 C 0.616 9.253 1.306 9.15 1.867 8.946 C 2.428 8.741 2.875 8.453 3.211 8.084 C 3.546 7.715 3.786 7.266 3.929 6.74 C 4.073 6.213 4.145 5.635 4.145 5.007 L 4.145 -1.498 C 3.761 -1.58 3.184 -1.679 2.411 -1.796 C 1.638 -1.911 0.766 -1.97 -0.205 -1.97 C -0.848 -1.97 -1.436 -1.908 -1.97 -1.785 C -2.503 -1.662 -2.958 -1.464 -3.334 -1.19 C -3.71 -0.917 -4.004 -0.561 -4.216 -0.123 C -4.429 0.314 -4.534 0.854 -4.534 1.497 C -4.534 2.113 -4.415 2.633 -4.176 3.057 C -3.936 3.481 -3.611 3.826 -3.201 4.093 C -2.791 4.36 -2.315 4.551 -1.775 4.668 C -1.235 4.784 -0.671 4.842 -0.082 4.842 C 0.191 4.842 0.479 4.825 0.78 4.791 C 1.08 4.756 1.402 4.698 1.744 4.616 L 1.744 5.027 C 1.744 5.314 1.71 5.587 1.641 5.847 C 1.573 6.107 1.453 6.337 1.282 6.535 C 1.111 6.733 0.886 6.887 0.605 6.997 C 0.325 7.106 -0.027 7.16 -0.451 7.16 C -1.026 7.16 -1.553 7.12 -2.031 7.037 C -2.51 6.955 -2.9 6.86 -3.201 6.751 L -3.508 8.761 C -3.194 8.871 -2.736 8.98 -2.134 9.09 C -1.532 9.199 -0.889 9.253 -0.205 9.253" style="fill: rgb(44, 46, 53); fill-opacity: 1;"/></g><g transform="matrix(1, 0, 0, 1, 463.072113, 552.381775)"><path d="M 0 0 C -0.739 0.014 -1.351 0.096 -1.837 0.247 C -2.322 0.397 -2.708 0.612 -2.995 0.892 C -3.283 1.173 -3.485 1.522 -3.601 1.939 C -3.717 2.356 -3.775 2.832 -3.775 3.365 L -3.775 15.717 L -1.293 16.127 L -1.293 3.837 C -1.293 3.536 -1.269 3.283 -1.221 3.077 C -1.173 2.873 -1.087 2.698 -0.965 2.554 C -0.841 2.411 -0.674 2.302 -0.462 2.227 C -0.25 2.151 0.02 2.093 0.349 2.052 Z" style="fill: rgb(44, 46, 53); fill-opacity: 1;"/></g><g transform="matrix(1, 0, 0, 1, 469.206788, 554.331177)"><path d="M 0 0 C 0.766 0 1.347 0.041 1.744 0.123 L 1.744 2.872 C 1.607 2.914 1.409 2.954 1.149 2.995 C 0.889 3.037 0.602 3.057 0.287 3.057 C 0.014 3.057 -0.264 3.037 -0.544 2.995 C -0.824 2.954 -1.077 2.879 -1.303 2.77 C -1.529 2.66 -1.71 2.506 -1.847 2.309 C -1.984 2.11 -2.052 1.86 -2.052 1.559 C -2.052 0.971 -1.867 0.564 -1.498 0.339 C -1.128 0.112 -0.63 0 0 0 M -0.205 9.253 C 0.616 9.253 1.306 9.15 1.867 8.946 C 2.428 8.741 2.875 8.453 3.211 8.084 C 3.546 7.715 3.786 7.266 3.929 6.74 C 4.073 6.213 4.145 5.635 4.145 5.007 L 4.145 -1.498 C 3.761 -1.58 3.184 -1.679 2.411 -1.796 C 1.638 -1.911 0.766 -1.97 -0.205 -1.97 C -0.848 -1.97 -1.436 -1.908 -1.97 -1.785 C -2.503 -1.662 -2.958 -1.464 -3.334 -1.19 C -3.71 -0.917 -4.004 -0.561 -4.216 -0.123 C -4.429 0.314 -4.534 0.854 -4.534 1.497 C -4.534 2.113 -4.415 2.633 -4.176 3.057 C -3.936 3.481 -3.611 3.826 -3.201 4.093 C -2.791 4.36 -2.315 4.551 -1.775 4.668 C -1.235 4.784 -0.671 4.842 -0.082 4.842 C 0.191 4.842 0.479 4.825 0.78 4.791 C 1.08 4.756 1.402 4.698 1.744 4.616 L 1.744 5.027 C 1.744 5.314 1.71 5.587 1.641 5.847 C 1.573 6.107 1.453 6.337 1.282 6.535 C 1.111 6.733 0.886 6.887 0.605 6.997 C 0.325 7.106 -0.027 7.16 -0.451 7.16 C -1.026 7.16 -1.553 7.12 -2.031 7.037 C -2.51 6.955 -2.9 6.86 -3.201 6.751 L -3.508 8.761 C -3.194 8.871 -2.736 8.98 -2.134 9.09 C -1.532 9.199 -0.889 9.253 -0.205 9.253" style="fill: rgb(44, 46, 53); fill-opacity: 1;"/></g><g transform="matrix(1, 0, 0, 1, 483.507294, 557.901185)"><path d="M 0 0 C 0 1.108 -0.25 1.97 -0.749 2.585 C -1.248 3.201 -2.052 3.508 -3.16 3.508 C -3.393 3.508 -3.635 3.498 -3.888 3.478 C -4.141 3.457 -4.391 3.413 -4.637 3.344 L -4.637 -2.79 C -4.418 -2.941 -4.128 -3.081 -3.765 -3.211 C -3.403 -3.341 -3.016 -3.406 -2.606 -3.406 C -1.703 -3.406 -1.043 -3.099 -0.626 -2.483 C -0.209 -1.867 0 -1.039 0 0 M 2.544 0.041 C 2.544 -0.78 2.438 -1.532 2.226 -2.216 C 2.014 -2.9 1.709 -3.488 1.313 -3.981 C 0.916 -4.473 0.42 -4.856 -0.174 -5.129 C -0.769 -5.403 -1.443 -5.54 -2.196 -5.54 C -2.702 -5.54 -3.167 -5.478 -3.591 -5.356 C -4.015 -5.232 -4.364 -5.095 -4.637 -4.945 L -4.637 -9.11 L -7.12 -9.11 L -7.12 5.067 C -6.614 5.204 -5.991 5.334 -5.252 5.458 C -4.514 5.58 -3.734 5.642 -2.914 5.642 C -2.066 5.642 -1.306 5.512 -0.636 5.252 C 0.034 4.992 0.605 4.62 1.077 4.135 C 1.549 3.649 1.911 3.061 2.164 2.369 C 2.418 1.679 2.544 0.902 2.544 0.041" style="fill: rgb(44, 46, 53); fill-opacity: 1;"/></g><g transform="matrix(1, 0, 0, 1, 492.391114, 554.331177)"><path d="M 0 0 C 0.766 0 1.347 0.041 1.744 0.123 L 1.744 2.872 C 1.607 2.914 1.409 2.954 1.149 2.995 C 0.889 3.037 0.602 3.057 0.287 3.057 C 0.014 3.057 -0.264 3.037 -0.544 2.995 C -0.824 2.954 -1.077 2.879 -1.303 2.77 C -1.529 2.66 -1.71 2.506 -1.847 2.309 C -1.984 2.11 -2.052 1.86 -2.052 1.559 C -2.052 0.971 -1.867 0.564 -1.498 0.339 C -1.128 0.112 -0.63 0 0 0 M -0.205 9.253 C 0.616 9.253 1.306 9.15 1.867 8.946 C 2.428 8.741 2.875 8.453 3.211 8.084 C 3.546 7.715 3.786 7.266 3.929 6.74 C 4.073 6.213 4.145 5.635 4.145 5.007 L 4.145 -1.498 C 3.761 -1.58 3.183 -1.679 2.411 -1.796 C 1.638 -1.911 0.766 -1.97 -0.205 -1.97 C -0.848 -1.97 -1.436 -1.908 -1.97 -1.785 C -2.503 -1.662 -2.958 -1.464 -3.334 -1.19 C -3.71 -0.917 -4.004 -0.561 -4.216 -0.123 C -4.429 0.314 -4.534 0.854 -4.534 1.497 C -4.534 2.113 -4.415 2.633 -4.176 3.057 C -3.936 3.481 -3.611 3.826 -3.201 4.093 C -2.791 4.36 -2.315 4.551 -1.775 4.668 C -1.235 4.784 -0.671 4.842 -0.082 4.842 C 0.191 4.842 0.479 4.825 0.78 4.791 C 1.08 4.756 1.402 4.698 1.744 4.616 L 1.744 5.027 C 1.744 5.314 1.71 5.587 1.641 5.847 C 1.573 6.107 1.453 6.337 1.282 6.535 C 1.111 6.733 0.886 6.887 0.605 6.997 C 0.325 7.106 -0.027 7.16 -0.451 7.16 C -1.026 7.16 -1.553 7.12 -2.031 7.037 C -2.51 6.955 -2.9 6.86 -3.201 6.751 L -3.508 8.761 C -3.194 8.871 -2.736 8.98 -2.134 9.09 C -1.532 9.199 -0.889 9.253 -0.205 9.253" style="fill: rgb(44, 46, 53); fill-opacity: 1;"/></g></g></g></svg>